<svg width="512" height="512" viewBox="0 0 64 64" fill="none" xmlns="http://www.w3.org/2000/svg">
<g clip-path="url(#clip0_365_32597)">
<mask id="mask0_365_32597" style="mask-type:luminance" maskUnits="userSpaceOnUse" x="0" y="0" width="64" height="64">
<path d="M64 0H0V64H64V0Z" fill="white"/>
</mask>
<g mask="url(#mask0_365_32597)">
<path d="M0 0H64V64H0V0Z" fill="#BF0000"/>
<path d="M27.3485 27.7029C25.0057 31.9314 22.72 36.9029 21.5428 39.4286C21.1085 40.3771 20.8343 40.9829 20.7657 41.0857C20.4914 41.4971 19.9885 41.8514 19.5543 42.16C19.2062 42.354 18.9025 42.6188 18.6628 42.9371C18.5485 43.1657 18.1257 44.0457 17.5885 44.8C16.7543 45.9771 14.7657 46.2286 15.2571 44.2743C16.1315 40.8963 17.1922 37.5693 18.4343 34.3086C15.6914 32.64 11.3828 29.0171 15.2571 26.7429C16.5371 25.9886 19.0171 25.5314 22.3428 25.1429L22.4571 24.9257C24.0685 21.7143 27.5428 14.8571 31.2457 14.8571C33.7028 14.8571 38.1485 21.3029 39.9885 24.1143H36.5943C35.12 21.8057 33.84 20.3657 33.0743 20.3657C32.2857 20.3657 30.3885 22.7657 28.88 25.1429H38.5943C43.6571 25.1429 49.8628 25.68 53.5314 26.7429C53.9428 26.9029 53.5885 27.5429 52.7428 27.5429L50.4914 27.3943C47.1428 27.1657 43.7714 27.1771 40.4114 27.1886L38.0571 27.2C34.8 27.2229 27.3371 27.7029 27.3371 27.7029H27.3485ZM18.9257 33.12L20.24 30.4571C18.8457 30.2857 18.1371 31.4171 18.1371 32.0571C18.1371 32.6971 18.6628 33.0286 18.9371 33.12H18.9257Z" fill="white"/>
<path d="M40.96 44C47.0401 46.3429 47.6115 40.9371 46.7315 37.8971C45.6515 34.5289 44.2107 31.2873 42.4343 28.2286H38.9715C40.2858 30.8686 41.44 33.7486 41.7486 35.7714C42.3772 40.0229 39.7715 40.8229 38.3315 40.2857C34.7543 38.96 27.2686 36.2514 26.0115 36.0343C24.7543 35.8286 24.6972 36.5714 25.2229 36.8343C27.8515 38.16 34.8686 41.6686 40.96 44Z" fill="white"/>
</g>
</g>
<defs>
<clipPath id="clip0_365_32597">
<rect width="64" height="64" fill="white"/>
</clipPath>
</defs>
</svg>
