<svg width="512" height="512" viewBox="0 0 64 64" fill="none" xmlns="http://www.w3.org/2000/svg">
<g clip-path="url(#clip0_365_32689)">
<mask id="mask0_365_32689" style="mask-type:luminance" maskUnits="userSpaceOnUse" x="0" y="0" width="64" height="64">
<path d="M64 0H0V64H64V0Z" fill="white"/>
</mask>
<g mask="url(#mask0_365_32689)">
<path d="M0 0H64V64H0V0Z" fill="#007AC2"/>
<path d="M33.143 36.4869H30.5487V25.1429H33.143V36.4869ZM7.42639 30.976H4.88468C4.88468 29.9326 5.22068 29.2434 5.89268 28.9074C6.3201 28.6846 7.11325 28.5714 8.26868 28.5714C9.56696 28.5714 10.4687 28.712 10.9738 28.992C11.7121 29.3954 12.0812 30.2023 12.0812 31.4126V36.4869H9.57153L9.67096 35.3291H9.57153C9.4401 36.1566 8.64239 36.5714 7.17953 36.5714C5.4401 36.5714 4.57153 35.8046 4.57153 34.2697C4.57153 33.2834 4.83439 32.5943 5.36353 32.2023C5.80353 31.8777 6.51782 31.7143 7.50982 31.7143C8.01496 31.7143 8.39439 31.7543 8.6481 31.832C9.04468 31.9554 9.31896 32.2023 9.47325 32.5726H9.57153V31.144C9.57153 30.7623 9.48925 30.4994 9.32468 30.3531C9.16011 30.208 8.87896 30.136 8.48239 30.136C8.1201 30.136 7.8721 30.1806 7.73953 30.2697C7.55325 30.3817 7.4481 30.6171 7.42639 30.976ZM7.0961 34.0674C7.0961 34.4377 7.22182 34.6789 7.47668 34.7909C7.63096 34.8686 7.91553 34.9086 8.33382 34.9086C9.1601 34.9086 9.57153 34.6229 9.57153 34.0514C9.57153 33.7714 9.51668 33.5863 9.40696 33.4971C9.20925 33.3394 8.8081 33.2617 8.20239 33.2617C7.4641 33.2617 7.0961 33.5291 7.0961 34.0674ZM20.4801 30.8914H18.1041C18.1041 30.8686 18.0927 30.8297 18.0721 30.7737C17.9818 30.4034 17.6858 30.2194 17.1807 30.2194H16.719C16.1247 30.2194 15.8047 30.4149 15.7612 30.8069C15.7612 31.2777 16.2012 31.5349 17.0812 31.5794C18.4447 31.6583 19.2538 31.7371 19.5064 31.816C20.3864 32.1074 20.8275 32.7794 20.8275 33.832C20.8275 34.9303 20.4424 35.6869 19.6721 36.1017C19.1007 36.416 18.2207 36.5703 17.031 36.5703C15.7658 36.5703 14.8915 36.456 14.4081 36.2194C13.6698 35.8606 13.3018 35.1326 13.3018 34.0343H15.8595C15.8595 34.3931 15.943 34.6331 16.1075 34.7566C16.2275 34.8571 16.4641 34.9086 16.8172 34.9086H17.3441C17.687 34.9086 17.9281 34.8743 18.071 34.8069C18.2801 34.7063 18.3852 34.5097 18.3852 34.2183C18.3852 33.704 18.0264 33.4457 17.311 33.4457H16.8001C15.6344 33.4457 14.8195 33.3291 14.3578 33.0926C13.6767 32.7337 13.335 32.0286 13.335 30.976C13.335 29.944 13.703 29.256 14.4401 28.9086C14.9235 28.6834 15.7441 28.5714 16.8995 28.5714C17.9338 28.5714 18.703 28.6629 19.2092 28.8411C20.0687 29.1326 20.4972 29.6983 20.4972 30.5383V30.7063C20.4858 30.7851 20.4801 30.8469 20.4801 30.8914ZM26.6812 33.8651H29.1247C29.1247 34.9966 28.8104 35.7543 28.183 36.1349C27.7212 36.4263 26.8801 36.5714 25.6572 36.5714C24.1407 36.5714 23.1121 36.3086 22.5715 35.7829C22.0001 35.2434 21.7144 34.2126 21.7144 32.6891C21.7144 31.1314 21.9407 30.072 22.391 29.512C22.9075 28.8846 23.903 28.5714 25.3784 28.5714C26.7418 28.5714 27.6938 28.7954 28.2332 29.2434C28.8275 29.7577 29.1247 30.7063 29.1247 32.0834V33.1429H24.1898C24.1898 33.8149 24.255 34.1234 24.3875 34.336C24.5635 34.6389 24.959 34.7897 25.5761 34.7897C25.9498 34.7897 26.2138 34.7337 26.367 34.6217C26.5658 34.488 26.671 34.2354 26.6812 33.8651ZM26.7155 31.5966C26.7155 30.7897 26.3247 30.3863 25.543 30.3863H25.4104C24.9041 30.3863 24.5692 30.4869 24.4047 30.6891C24.2835 30.8343 24.223 31.1371 24.223 31.5966H26.7155ZM41.4641 30.8914H39.0881C39.0881 30.8686 39.0767 30.8297 39.0561 30.7737C38.9681 30.4034 38.671 30.2194 38.1647 30.2194H37.7018C37.1075 30.2194 36.7887 30.4149 36.7452 30.8069C36.7452 31.2777 37.1852 31.5349 38.0652 31.5794C39.4298 31.6583 40.2378 31.7371 40.4904 31.816C41.3704 32.1074 41.8115 32.7794 41.8115 33.832C41.8115 34.9303 41.4264 35.6869 40.6561 36.1017C40.0847 36.416 39.2047 36.5703 38.0161 36.5703C36.751 36.5703 35.8755 36.456 35.391 36.2194C34.655 35.8606 34.2858 35.1326 34.2858 34.0343H36.8447C36.8447 34.3931 36.927 34.6331 37.0915 34.7566C37.2127 34.8571 37.4481 34.9086 37.8012 34.9086H38.3292C38.671 34.9086 38.9121 34.8743 39.0561 34.8069C39.2652 34.7063 39.3693 34.5097 39.3693 34.2183C39.3693 33.704 39.0115 33.4457 38.295 33.4457H37.7852C36.6184 33.4457 35.8035 33.3291 35.3418 33.0926C34.6607 32.7337 34.3201 32.0286 34.3201 30.976C34.3201 29.944 34.687 29.256 35.4252 28.9086C35.9087 28.6834 36.7281 28.5714 37.8835 28.5714C38.9178 28.5714 39.6892 28.6629 40.1944 28.8411C41.0515 29.1326 41.4813 29.6983 41.4813 30.5383V30.7063C41.4719 30.7676 41.4662 30.8294 41.4641 30.8914ZM45.831 30.976H43.2881C43.2881 29.9326 43.6241 29.2434 44.2961 28.9074C44.7247 28.6834 45.5167 28.5714 46.6733 28.5714C47.9693 28.5714 48.8733 28.712 49.3784 28.992C50.1167 29.3954 50.4847 30.2023 50.4847 31.4126V36.4869H47.975L48.0755 35.3291H47.975C47.8435 36.1566 47.0458 36.5714 45.583 36.5714C43.8435 36.5714 42.975 35.8046 42.975 34.2697C42.975 33.2834 43.239 32.5943 43.7681 32.2023C44.207 31.8777 44.9224 31.7143 45.9132 31.7143C46.4184 31.7143 46.7978 31.7543 47.0515 31.832C47.4481 31.9554 47.7224 32.2023 47.8767 32.5726H47.975V31.144C47.975 30.7623 47.8927 30.4994 47.7281 30.3531C47.5635 30.208 47.2824 30.136 46.8858 30.136C46.5235 30.136 46.2767 30.1806 46.143 30.2697C45.9567 30.3817 45.8527 30.6171 45.831 30.976ZM45.4995 34.0674C45.4995 34.4377 45.6264 34.6789 45.8801 34.7909C46.0344 34.8686 46.3201 34.9086 46.7372 34.9086C47.5635 34.9086 47.975 34.6229 47.975 34.0514C47.975 33.7714 47.9212 33.5863 47.8104 33.4971C47.6127 33.3394 47.2115 33.2617 46.6058 33.2617C45.8687 33.2617 45.4995 33.5291 45.4995 34.0674ZM52.0687 28.64H54.4767V30.0834H54.5761C54.9178 29.0766 55.639 28.5714 56.7384 28.5714C58.5327 28.5714 59.4287 29.376 59.4287 30.9829V36.5714H56.919V31.9177C56.919 31.0229 56.6173 30.576 56.0127 30.576C55.0561 30.576 54.5761 31.0229 54.5761 31.9177V36.5714H52.0687V28.64Z" fill="white"/>
</g>
</g>
<defs>
<clipPath id="clip0_365_32689">
<rect width="64" height="64" fill="white"/>
</clipPath>
</defs>
</svg>
