<svg width="512" height="512" viewBox="0 0 64 64" fill="none" xmlns="http://www.w3.org/2000/svg">
<g clip-path="url(#clip0_365_32583)">
<mask id="mask0_365_32583" style="mask-type:luminance" maskUnits="userSpaceOnUse" x="0" y="0" width="64" height="64">
<path d="M64 0H0V64H64V0Z" fill="white"/>
</mask>
<g mask="url(#mask0_365_32583)">
<path d="M0 0H64V64H0V0Z" fill="#ED1C24"/>
<path d="M26.1938 45.5466V45.1306C26.1582 44.4017 26.0978 43.8649 26.0978 43.6658C26.0978 43.1538 25.248 37.728 25.1164 36.4622C24.9849 35.2178 25.2871 34.9191 25.2871 34.9191C24.4907 30.2862 25.9662 25.3191 25.9662 25.3191C25.4364 24.8462 26.5351 22.368 26.5351 22.368C27.3458 20.3306 28.3484 17.4258 28.3484 17.4258C28.5719 16.5491 28.7558 15.6629 28.8996 14.7698C29.0489 13.1698 29.0489 11.5449 29.0489 11.0115C29.0489 10.5955 28.5582 10.6133 28.5582 10.2578C28.5582 9.82397 29.0489 8.77508 29.088 8.67553C29.1027 8.5488 29.0906 8.42039 29.0524 8.29864C29.0133 8.19908 28.9173 8.09953 28.9173 8.09953C28.9173 7.60531 29.2764 7.11108 29.8418 7.11108H34.176C34.7236 7.11108 35.1004 7.60886 35.1004 8.09953C35.1004 8.09953 35.008 8.18131 34.9511 8.31997C34.9043 8.43857 34.8919 8.568 34.9156 8.69331C34.9511 8.79286 35.4418 9.86308 35.4418 10.2791C35.4418 10.6524 34.9511 10.6346 34.9511 11.0293C34.9511 11.5449 34.9689 13.1662 35.1004 14.7698C35.2711 15.8186 35.4809 16.7893 35.6516 17.4435C35.6516 17.4435 36.6329 20.352 37.4649 22.3893C37.4649 22.3893 38.5813 24.864 38.0338 25.3404C38.0338 25.3404 39.5093 30.3075 38.7129 34.9404C38.7129 34.9404 39.0151 35.2355 38.8836 36.4835C38.752 37.728 37.9022 43.1538 37.9022 43.6871C37.9022 43.8862 37.8453 44.4409 37.8062 45.1733V45.5644C37.8062 48.8533 39.1111 50.4569 39.1111 52.576C39.1111 55.4026 37.3902 56.8889 32 56.8889C26.6098 56.8889 24.8889 55.424 24.8889 52.576C24.8889 50.4569 26.1938 48.8533 26.1938 45.5466Z" fill="white"/>
</g>
</g>
<defs>
<clipPath id="clip0_365_32583">
<rect width="64" height="64" fill="white"/>
</clipPath>
</defs>
</svg>
