<svg width="512" height="512" viewBox="0 0 64 64" fill="none" xmlns="http://www.w3.org/2000/svg">
<g clip-path="url(#clip0_365_32561)">
<mask id="mask0_365_32561" style="mask-type:luminance" maskUnits="userSpaceOnUse" x="0" y="0" width="64" height="64">
<path d="M64 0H0V64H64V0Z" fill="white"/>
</mask>
<g mask="url(#mask0_365_32561)">
<path d="M0 0H64V64H0V0Z" fill="#16509F"/>
<path d="M9.14282 18.2857C9.14282 18.2857 17.0171 32.2628 31.7485 32.4754C48.24 32.7143 55.3142 18.712 55.3142 18.712C55.3142 18.712 47.8674 27.392 37.9737 29.2457C31.9383 30.3748 27.44 29.3531 26.4308 29.1383C25.4205 28.9268 21.8937 27.8011 19.6205 26.5988C14.4091 23.8446 9.14282 18.2857 9.14282 18.2857Z" fill="#F79A33"/>
<path d="M13.8719 33.7143L11.9839 39.7989C11.9839 39.7989 16.8251 39.8366 17.6136 36.8389C17.9965 35.3817 17.2308 34.4503 16.2125 34.0229C15.4468 33.7006 14.5394 33.7143 13.8719 33.7143ZM12.3325 32.3383C13.4948 32.2983 15.0091 32.3269 16.3599 32.7429C18.2708 33.3314 19.8548 34.5943 19.6502 36.6492C19.4845 38.3097 18.5394 39.6526 16.3222 40.5429C14.2788 41.3646 9.57593 41.0949 9.57593 41.0949L12.3325 32.3383ZM34.7622 36.5714L33.0708 36.5783C31.7736 36.5212 29.6605 37.7417 30.1039 39.2572C30.3508 40.1029 30.9839 40.5326 32.1154 40.3874C33.2514 40.2412 33.7382 39.264 33.8845 38.9977C34.0308 38.7349 34.7622 36.5714 34.7622 36.5714ZM37.1428 35.4286L36.2239 38.3543C36.2239 38.3543 35.6388 40.6023 34.9359 41.8594C34.2319 43.1166 33.2056 44.032 31.0925 44.2857C28.9759 44.5349 27.3154 43.5406 27.3154 43.5406L27.8205 42.4937C27.8205 42.4937 29.2822 43.3806 31.0925 43.0137C32.8982 42.6389 33.3668 40.8034 33.3668 40.8034C33.3668 40.8034 33.2194 40.9349 32.8091 41.0937C31.0994 41.7372 27.9748 41.1783 28.0994 38.8274C28.2296 36.3657 30.8696 35.3634 33.0216 35.4286H37.1428ZM43.4399 36.5714H41.3931C41.3931 36.5714 40.4559 36.5714 39.6891 37.0823C38.1679 38.0937 38.4731 40.7874 40.6902 40.2194C41.4262 40.0309 42.1622 39.5314 42.4959 38.8389C42.6559 38.5097 43.4399 36.5714 43.4399 36.5714ZM45.8731 35.4286L43.9999 41.1429H41.8834L42.1096 40.4012C42.1096 40.4012 41.0068 41.3303 39.8365 41.3017C36.6136 41.2263 35.5851 37.5029 38.7051 36.0092C39.7039 35.5349 40.4182 35.4526 41.2708 35.4286C42.0159 35.4046 45.8731 35.4286 45.8731 35.4286ZM46.9291 35.4286L45.3382 41.1154H47.3839L48.7645 36.5714H50.5988C51.6411 36.5794 52.0925 37.4366 51.8491 38.3657C51.7828 38.6297 51.0971 41.1429 51.0971 41.1429H53.1428L53.8434 38.5783C53.8434 38.5783 54.2159 37.3897 53.7256 36.672C52.9931 35.5954 51.6422 35.4594 50.4388 35.4286H46.9291Z" fill="#FEFEFE"/>
<path d="M27.4812 37.7337C27.8126 39.448 26.3246 41.1783 24.1555 41.5977C21.9863 42.0183 19.9589 40.9692 19.6275 39.2549C19.296 37.5394 20.784 35.8092 22.9532 35.3886C25.1223 34.9692 27.1498 36.0183 27.4812 37.7337ZM24.6812 39.7783C25.6515 38.9714 25.9475 37.7269 25.3418 36.9989C24.736 36.2709 23.4583 36.336 22.488 37.1429C21.5166 37.9497 21.2218 39.1943 21.8275 39.9223C22.4332 40.6503 23.7109 40.5852 24.6812 39.7783Z" fill="white"/>
</g>
</g>
<defs>
<clipPath id="clip0_365_32561">
<rect width="64" height="64" fill="white"/>
</clipPath>
</defs>
</svg>
