<svg width="512" height="512" viewBox="0 0 64 64" fill="none" xmlns="http://www.w3.org/2000/svg">
<g clip-path="url(#clip0_365_32446)">
<mask id="mask0_365_32446" style="mask-type:luminance" maskUnits="userSpaceOnUse" x="0" y="0" width="64" height="64">
<path d="M64 0H0V64H64V0Z" fill="white"/>
</mask>
<g mask="url(#mask0_365_32446)">
<path d="M0 0H64V64H0V0Z" fill="#ED1C2E"/>
<path d="M32.0036 21.3334C20.2525 21.3334 10.6667 26.6383 10.6667 33.1378C10.6667 35.2996 11.6018 36.5689 13.3796 38.2863C16.8569 41.6356 24.736 42.0907 29.2125 41.5645C31.6836 41.2729 35.2889 40.256 37.0134 39.5769C38.7378 38.9014 39.1609 38.6134 39.1609 38.6134C39.1609 38.6134 35.9858 39.5272 32.8605 39.8187C29.7351 40.1103 26.2969 40.5654 23.4987 40.032C20.7005 39.4987 19.3387 38.7058 18.0836 37.6889C16.8249 36.672 15.6836 35.4703 15.7334 33.1485C15.7334 28.064 23.2107 23.4738 32.1458 23.6196C41.0845 23.7618 48.4196 28.1103 48.3307 33.1983C48.1671 42.5743 32.3058 44.4943 25.4507 43.5094C21.6747 42.8338 17.3014 41.4294 17.3014 41.4294C20.9956 43.6303 25.8347 44.8285 31.3458 44.8C43.0934 44.7396 53.3334 39.7085 53.3334 33.1378C53.3334 26.5778 43.7547 21.3334 32.0036 21.3334ZM31.9431 24.2916C31.6141 24.2953 31.289 24.3639 30.9865 24.4933C30.684 24.6228 30.41 24.8106 30.1802 25.0461C29.9503 25.2815 29.7692 25.56 29.647 25.8655C29.5249 26.1711 29.4642 26.4977 29.4685 26.8267C29.4685 28.2276 30.5707 29.3654 31.9431 29.3654C33.312 29.3654 34.4214 28.2276 34.4214 26.8267C34.4251 26.4975 34.364 26.1708 34.2415 25.8653C34.119 25.5597 33.9375 25.2813 33.7073 25.0458C33.4772 24.8104 33.203 24.6227 32.9003 24.4932C32.5975 24.3638 32.2723 24.2953 31.9431 24.2916ZM31.9431 34.2329C31.6141 34.2366 31.289 34.3052 30.9865 34.4346C30.684 34.5641 30.41 34.7519 30.1802 34.9874C29.9503 35.2229 29.7692 35.5013 29.647 35.8069C29.5249 36.1124 29.4642 36.439 29.4685 36.768C29.4685 38.1689 30.5707 39.3067 31.9431 39.3067C33.312 39.3067 34.4214 38.1689 34.4214 36.768C34.4251 36.4389 34.364 36.1122 34.2415 35.8066C34.119 35.501 33.9375 35.2226 33.7073 34.9872C33.4772 34.7518 33.203 34.564 32.9003 34.4346C32.5975 34.3052 32.2723 34.2366 31.9431 34.2329Z" fill="white"/>
</g>
</g>
<defs>
<clipPath id="clip0_365_32446">
<rect width="64" height="64" fill="white"/>
</clipPath>
</defs>
</svg>
