<svg width="512" height="512" viewBox="0 0 64 64" fill="none" xmlns="http://www.w3.org/2000/svg">
<g clip-path="url(#clip0_365_32669)">
<mask id="mask0_365_32669" style="mask-type:luminance" maskUnits="userSpaceOnUse" x="0" y="0" width="64" height="64">
<path d="M64 0H0V64H64V0Z" fill="white"/>
</mask>
<g mask="url(#mask0_365_32669)">
<path d="M0 0H64V64H0V0Z" fill="#0B488B"/>
<path d="M32.0001 50.2857C42.099 50.2857 50.2858 42.0989 50.2858 32C50.2858 21.9011 42.099 13.7143 32.0001 13.7143C21.9011 13.7143 13.7144 21.9011 13.7144 32C13.7144 42.0989 21.9011 50.2857 32.0001 50.2857Z" fill="white"/>
<path fill-rule="evenodd" clip-rule="evenodd" d="M20.5715 21.7143C19.6621 21.7143 18.7901 22.0755 18.1471 22.7185C17.5041 23.3615 17.1429 24.2335 17.1429 25.1429C17.1429 25.446 17.2633 25.7367 17.4776 25.951C17.6919 26.1653 17.9826 26.2857 18.2857 26.2857H26.2857C26.5888 26.2857 26.8795 26.4061 27.0939 26.6204C27.3082 26.8348 27.4286 27.1255 27.4286 27.4286C27.4286 27.7317 27.3082 28.0224 27.0939 28.2367C26.8795 28.451 26.5888 28.5714 26.2857 28.5714H18.7406C18.2545 28.5716 17.7741 28.675 17.331 28.875C16.888 29.075 16.4926 29.3669 16.171 29.7313C15.8493 30.0957 15.6089 30.5244 15.4655 30.9888C15.3221 31.4532 15.2792 31.9428 15.3394 32.4251L15.8206 36.2789C16.0279 37.9374 16.8337 39.4631 18.0868 40.5693C19.3398 41.6754 20.9537 42.2858 22.6252 42.2857H29.7143C30.3205 42.2857 30.9019 42.0449 31.3306 41.6162C31.7592 41.1876 32 40.6062 32 40V24C32 23.3938 31.7592 22.8124 31.3306 22.3838C30.9019 21.9551 30.3205 21.7143 29.7143 21.7143H20.5715ZM21.7143 32C21.4112 32 21.1205 32.1204 20.9062 32.3347C20.6919 32.5491 20.5715 32.8398 20.5715 33.1429V35.4286C20.5715 36.3379 20.9327 37.21 21.5757 37.8529C22.2186 38.4959 23.0907 38.8571 24 38.8571C24.9093 38.8571 25.7814 38.4959 26.4244 37.8529C27.0674 37.21 27.4286 36.3379 27.4286 35.4286V33.1429C27.4286 32.8398 27.3082 32.5491 27.0939 32.3347C26.8795 32.1204 26.5888 32 26.2857 32H21.7143ZM43.4286 42.2857C44.3379 42.2857 45.21 41.9245 45.853 41.2815C46.4959 40.6385 46.8572 39.7665 46.8572 38.8571C46.8572 38.554 46.7368 38.2633 46.5224 38.049C46.3081 37.8347 46.0174 37.7143 45.7143 37.7143H37.7143C37.4112 37.7143 37.1205 37.5939 36.9062 37.3796C36.6919 37.1652 36.5715 36.8745 36.5715 36.5714C36.5715 36.2683 36.6919 35.9776 36.9062 35.7633C37.1205 35.549 37.4112 35.4286 37.7143 35.4286H45.2595C45.7455 35.4284 46.226 35.325 46.669 35.125C47.112 34.925 47.5075 34.6331 47.8291 34.2687C48.1507 33.9043 48.3912 33.4756 48.5345 33.0112C48.6779 32.5468 48.7209 32.0572 48.6606 31.5749L48.1795 27.7211C47.9722 26.0626 47.1663 24.5369 45.9133 23.4307C44.6602 22.3246 43.0463 21.7142 41.3749 21.7143H34.2857C33.6795 21.7143 33.0981 21.9551 32.6695 22.3838C32.2408 22.8124 32 23.3938 32 24V40C32 40.6062 32.2408 41.1876 32.6695 41.6162C33.0981 42.0449 33.6795 42.2857 34.2857 42.2857H43.4286ZM42.2857 32C42.5888 32 42.8795 31.8796 43.0939 31.6653C43.3082 31.4509 43.4286 31.1602 43.4286 30.8571V28.5714C43.4286 27.6621 43.0674 26.79 42.4244 26.1471C41.7814 25.5041 40.9093 25.1429 40 25.1429C39.0907 25.1429 38.2186 25.5041 37.5757 26.1471C36.9327 26.79 36.5715 27.6621 36.5715 28.5714V30.8571C36.5715 31.1602 36.6919 31.4509 36.9062 31.6653C37.1205 31.8796 37.4112 32 37.7143 32H42.2857Z" fill="#0B488B"/>
</g>
</g>
<defs>
<clipPath id="clip0_365_32669">
<rect width="64" height="64" fill="white"/>
</clipPath>
</defs>
</svg>
