<svg width="512" height="512" viewBox="0 0 64 64" fill="none" xmlns="http://www.w3.org/2000/svg">
<g clip-path="url(#clip0_365_32396)">
<mask id="mask0_365_32396" style="mask-type:luminance" maskUnits="userSpaceOnUse" x="0" y="0" width="64" height="64">
<path d="M64 0H0V64H64V0Z" fill="white"/>
</mask>
<g mask="url(#mask0_365_32396)">
<path d="M0 0H64V64H0V0Z" fill="#002E6D"/>
<path d="M33.023 30.1977L32.2047 31.6606C32.455 31.8834 32.6275 32.2126 32.6275 32.5714C32.6275 33.2388 32.0893 33.7714 31.4333 33.7714C31.312 33.7729 31.1914 33.7536 31.0767 33.7143L30.2767 35.1863C30.7125 35.3776 31.1891 35.4572 31.6634 35.4178C32.1377 35.3783 32.5946 35.2211 32.9928 34.9604C33.391 34.6997 33.7178 34.3437 33.9436 33.9247C34.1694 33.5058 34.287 33.0371 34.2858 32.5611C34.2807 32.0947 34.1633 31.6364 33.9434 31.225C33.7236 30.8136 33.4079 30.4612 33.023 30.1977ZM31.6938 31.4L32.5121 29.9268C32.0774 29.7493 31.6056 29.6815 31.1385 29.7296C30.6714 29.7776 30.2232 29.9399 29.8337 30.2023C29.4442 30.4646 29.1253 30.8188 28.9052 31.2335C28.6851 31.6483 28.5705 32.111 28.5715 32.5806C28.5715 33.5406 29.0538 34.3931 29.7761 34.9154L30.5853 33.4823L30.6047 33.4628C30.4856 33.3491 30.3909 33.2123 30.3263 33.0609C30.2616 32.9094 30.2284 32.7464 30.2287 32.5817C30.2287 31.9131 30.7681 31.3806 31.4241 31.3806C31.511 31.3703 31.607 31.3806 31.6938 31.4ZM43.3075 30.1988L42.487 31.6617C42.7384 31.8834 42.911 32.2126 42.911 32.5714C42.911 33.24 42.3704 33.7714 41.7144 33.7714C41.5928 33.773 41.4718 33.7537 41.3567 33.7143L40.5567 35.1863C40.9927 35.3783 41.4699 35.4583 41.9447 35.4192C42.4196 35.3801 42.8771 35.2231 43.2759 34.9623C43.6747 34.7016 44.0021 34.3454 44.2283 33.9261C44.4546 33.5068 44.5725 33.0376 44.5715 32.5611C44.57 32.0939 44.4538 31.6343 44.2332 31.2224C44.0127 30.8105 43.6956 30.4591 43.3075 30.1988ZM41.9841 31.4L42.8047 29.9268C42.3696 29.7484 41.8972 29.68 41.4294 29.7276C40.9615 29.7752 40.5126 29.9373 40.1224 30.1997C39.7321 30.462 39.4125 30.8165 39.1919 31.2318C38.9712 31.6471 38.8563 32.1103 38.8573 32.5806C38.8573 33.5406 39.3395 34.392 40.0641 34.9154L40.8755 33.4823L40.8938 33.4628C40.7745 33.3492 40.6795 33.2125 40.6147 33.061C40.5498 32.9096 40.5165 32.7465 40.5167 32.5817C40.5164 32.2636 40.6424 31.9585 40.8669 31.7332C41.0915 31.508 41.3963 31.3812 41.7144 31.3806C41.8013 31.3703 41.8973 31.3806 41.9841 31.4ZM34.2161 29.7143H38.4515V31.552H37.1258V35.4286H35.5407V31.552H34.215L34.2161 29.7143ZM48.5201 32.8663C48.7784 33.1714 48.8744 33.568 48.8744 33.9337C48.8744 34.7566 48.2424 35.4286 47.4653 35.4286H44.6093V33.68H46.4493C46.5453 33.68 46.6321 33.6594 46.6321 33.5577C46.6302 33.5002 46.606 33.4457 46.5647 33.4057L45.079 32.3577C44.9172 32.2136 44.7882 32.0366 44.7007 31.8384C44.6132 31.6403 44.5691 31.4257 44.5715 31.2091C44.5715 30.3863 45.2035 29.7143 45.9807 29.7143H48.5864V31.3211H46.919C46.823 31.3211 46.7373 31.3417 46.7373 31.4434C46.7373 31.4834 46.7567 31.5348 46.7761 31.5646L48.5201 32.8663ZM52.6893 31.496L50.6321 35.4286H48.7693L51.7715 29.7143L52.6893 31.496ZM52.9395 31.9828L54.775 35.4286H52.9498L52.0698 33.6468L52.9395 31.9828ZM56.4721 35.4286H54.8573V29.7143L57.7864 32.0308V29.7143H59.4287V35.4286L56.4721 33.112V35.4286Z" fill="#C8C8C8"/>
<path d="M4.57153 35.4287H6.24925V33.143H8.30639V32.0001H6.24925V30.8573H8.6321V29.7144H4.57153V35.4287ZM10.8275 32.5715C10.8275 31.6961 11.159 30.9647 12.0001 30.9647C12.8424 30.9647 13.1738 31.6961 13.1738 32.5715C13.1738 33.399 12.8424 34.1784 12.0001 34.1784C11.1681 34.1784 10.8275 33.399 10.8275 32.5715ZM9.14296 32.5715C9.14296 34.3315 10.1372 35.4287 12.0001 35.4287C13.863 35.4287 14.8572 34.3315 14.8572 32.5715C14.8572 30.8013 13.8744 29.7144 12.0001 29.7144C10.1258 29.7144 9.14296 30.8013 9.14296 32.5715ZM17.4287 30.8573H17.743C18.3372 30.8573 18.8835 30.8893 18.8835 31.4173C18.8835 32.0641 18.2435 32.0001 17.743 32.0001H17.4287V30.8573ZM15.7784 35.4287H17.4378V33.143H17.6698C17.9841 33.143 18.207 33.3373 18.671 34.2835L19.199 35.4287H21.0161L20.2561 33.8755C19.959 33.1784 19.839 32.9898 19.3292 32.8607C20.0892 32.671 20.5521 32.0641 20.5521 31.3064C20.5521 30.3213 19.9407 29.7144 18.5681 29.7144H15.7784V35.4287ZM23.2035 30.8573H23.7784C24.5932 30.8573 24.8721 31.4264 24.8721 32.5715C24.8721 33.7064 24.4458 34.2858 23.7784 34.2858H23.2035V30.8573ZM21.5258 35.4287H23.5647C25.4732 35.4287 26.503 34.6824 26.503 32.5418C26.503 30.3315 25.511 29.7144 23.5658 29.7144H21.5258V35.4287Z" fill="white"/>
</g>
</g>
<defs>
<clipPath id="clip0_365_32396">
<rect width="64" height="64" fill="white"/>
</clipPath>
</defs>
</svg>
