<svg width="512" height="512" viewBox="0 0 64 64" fill="none" xmlns="http://www.w3.org/2000/svg">
<g clip-path="url(#clip0_365_32718)">
<mask id="mask0_365_32718" style="mask-type:luminance" maskUnits="userSpaceOnUse" x="0" y="0" width="64" height="64">
<path d="M64 0H0V64H64V0Z" fill="white"/>
</mask>
<g mask="url(#mask0_365_32718)">
<path d="M0 0H64V64H0V0Z" fill="#0032A1"/>
<path d="M34.5102 9.57505C34.5037 10.2345 34.2356 10.8645 33.7649 11.3264C33.2943 11.7884 32.6595 12.0447 32 12.0391C31.3405 12.0447 30.7057 11.7884 30.2351 11.3264C29.7644 10.8645 29.4963 10.2345 29.4898 9.57505C29.4963 8.91557 29.7644 8.28566 30.2351 7.82366C30.7057 7.36167 31.3405 7.10537 32 7.11105C32.6595 7.10537 33.2943 7.36167 33.7649 7.82366C34.2356 8.28566 34.5037 8.91557 34.5102 9.57505ZM25.9342 13.1413H38.0658V14.3751C36.9209 14.3751 35.5556 14.9902 35.5556 16.8391V30.1475L28.4444 26.6666V18.1795C24.6791 18.0728 21.8382 22.2648 26.3538 26.6986C28.0747 28.3875 30.4427 29.5573 32.7004 30.6737C33.4827 31.0648 34.2578 31.4417 34.9831 31.8364C38.5387 34.0622 43.712 36.5582 43.712 41.2231C43.712 47.3528 37.4542 50.2613 32.6756 50.2008C33.7351 50.4924 34.5102 51.4453 34.5102 52.5759C34.5102 53.2942 33.6996 54.3893 33.6996 54.3893L32 56.8888H31.3742V55.5128C31.3742 55.1928 31.1431 54.9155 30.848 54.7662C30.4412 54.5624 30.099 54.2498 29.8592 53.8631C29.6194 53.4765 29.4915 53.0309 29.4898 52.5759C29.4898 51.3599 30.3858 50.3502 31.5627 50.1475C29.9582 50.0125 28.3813 49.6486 26.88 49.0666C25.344 48.4906 23.7796 47.9004 23.2178 50.1119H21.9591V41.4862H23.0507C23.0507 41.4862 23.5413 43.6551 24.6258 44.9457C29.4898 51.3457 40.256 49.9804 40.256 43.0399C40.256 40.7146 37.8667 38.8159 35.5556 37.3866V42.1013C35.5556 43.5946 36.6329 44.8355 38.0658 45.1235V46.4142H25.9342V45.1199C26.6379 44.9849 27.2729 44.6097 27.7307 44.0585C28.1885 43.5073 28.4408 42.8143 28.4444 42.0977V33.7777L26.9191 32.7822L26.5209 32.5226C23.8471 30.8124 21.3333 29.2017 21.3333 25.4648C21.3333 21.4542 23.1111 17.7777 28.4444 16.9031C28.4444 14.9902 27.1893 14.3751 25.9342 14.3751V13.1413Z" fill="white"/>
<path d="M36.8107 19.3031C38.1262 20.7253 39.3209 23.616 39.4418 25.4649H40.576V16.8391H39.3209C39.3209 18.0693 38.0658 18.688 36.8107 18.1653V19.3031Z" fill="white"/>
</g>
</g>
<defs>
<clipPath id="clip0_365_32718">
<rect width="64" height="64" fill="white"/>
</clipPath>
</defs>
</svg>
