<svg width="512" height="512" viewBox="0 0 64 64" fill="none" xmlns="http://www.w3.org/2000/svg">
<g clip-path="url(#clip0_365_32371)">
<mask id="mask0_365_32371" style="mask-type:luminance" maskUnits="userSpaceOnUse" x="0" y="0" width="64" height="64">
<path d="M64 0H0V64H64V0Z" fill="white"/>
</mask>
<g mask="url(#mask0_365_32371)">
<path d="M0 0H64V64H0V0Z" fill="#D5343E"/>
<path d="M11.0972 25.1428H13.2L11.7372 38.8571H17.1429L16.9143 40.5028C16.8572 41.0171 16.4572 41.1428 16.2629 41.1428H10.4C9.26859 41.0514 9.09716 40.1828 9.14288 39.7485L10.48 25.7714C10.5372 25.2685 10.9143 25.1428 11.0972 25.1428Z" fill="white"/>
<path fill-rule="evenodd" clip-rule="evenodd" d="M17.3257 25.1428H26.0114C26.4685 25.1657 27.3828 25.4857 27.4285 26.5714L26.7314 34.9143C26.7314 35.4971 26.2628 36.48 24.8685 36.5714H16.2171C15.7485 36.5714 14.8114 36.2171 14.8571 34.9143C14.9028 33.6114 15.3599 28.8114 15.5771 26.5714C15.5771 26.0571 16.3085 25.1428 17.3257 25.1428ZM25.1428 27.4285L24.5714 33.6C24.5461 33.7928 24.4504 33.9695 24.3027 34.096C24.155 34.2226 23.9658 34.2902 23.7714 34.2857H17.1428L17.6799 28.08C17.7257 27.7028 18.0228 27.4285 18.7085 27.4285H25.1428ZM44.7542 25.1428H53.4399C53.8971 25.1657 54.8114 25.4857 54.8571 26.5714L54.1599 34.9143C54.1599 35.4971 53.6914 36.48 52.2971 36.5714H43.6457C43.1657 36.5714 42.2399 36.2171 42.2857 34.9143C42.3314 33.6114 42.7885 28.8114 43.0057 26.5714C43.0057 26.0571 43.7257 25.1428 44.7542 25.1428ZM52.5714 27.4285L51.9999 33.6C51.9746 33.7928 51.8789 33.9695 51.7313 34.096C51.5836 34.2226 51.3944 34.2902 51.1999 34.2857H44.5714L45.1085 28.08C45.1542 27.7028 45.4514 27.4285 46.1371 27.4285H52.5714ZM39.7257 25.1428H31.0399C30.0114 25.1428 29.2914 26.0571 29.2914 26.5714C29.0628 28.8 28.6171 33.6114 28.5714 34.9143C28.5257 36.2171 29.4514 36.56 29.9314 36.5714H36.5714V38.0571C36.5714 38.48 36.1942 38.8571 35.7028 38.8571H31.0857L30.8571 40.6057C30.8457 40.7771 30.9371 41.12 31.3942 41.1428H36.8799C37.4514 41.1428 38.8571 40.7543 38.8571 39.2685V36.5371C40.0342 36.3428 40.4457 35.4628 40.4457 34.9143L41.1428 26.5714C41.0971 25.4857 40.1828 25.1657 39.7257 25.1428ZM38.2742 33.6L38.8571 27.4285H32.4228C31.7371 27.4285 31.4399 27.7028 31.3942 28.08L30.8571 34.2857H37.4857C37.6801 34.2902 37.8693 34.2226 38.017 34.096C38.1647 33.9695 38.2603 33.7928 38.2857 33.6H38.2742Z" fill="white"/>
</g>
</g>
<defs>
<clipPath id="clip0_365_32371">
<rect width="64" height="64" fill="white"/>
</clipPath>
</defs>
</svg>
