<svg width="512" height="512" viewBox="0 0 64 64" fill="none" xmlns="http://www.w3.org/2000/svg">
<g clip-path="url(#clip0_365_32357)">
<mask id="mask0_365_32357" style="mask-type:luminance" maskUnits="userSpaceOnUse" x="0" y="0" width="64" height="64">
<path d="M64 0H0V64H64V0Z" fill="white"/>
</mask>
<g mask="url(#mask0_365_32357)">
<path d="M0 0H64V64H0V0Z" fill="#ED6827"/>
<path d="M7.99995 37.7144V31.1853L9.71423 37.7144L11.9999 37.711L13.7142 31.1853V37.7144L15.9999 37.711V27.4287H11.6982L10.8571 32.2093L9.98395 27.4287H5.71423L5.71652 37.7144H7.99995Z" fill="white"/>
<path d="M54.4228 27.1338C56.4011 27.1338 58.736 28.0401 58.5771 30.4195H55.9223C55.936 30.0366 55.6765 29.5281 55.4377 29.3223C55.2125 29.1166 54.6948 28.9452 54.2445 28.9452C53.272 28.9452 53.0514 29.5303 53.0697 29.9463C53.1097 30.8618 54.5543 30.9989 55.2617 31.1669C56.8445 31.5418 58.9154 32.2766 58.9154 34.9383C58.9154 37.0161 56.6411 37.9646 54.424 37.9646C52.1943 37.9646 50.104 37.2641 50.104 34.6161L52.8445 34.6138C52.832 35.5429 53.4994 36.3566 54.456 36.3566C55.0651 36.3566 55.96 36.2046 55.96 35.2023C55.96 34.4481 55.088 33.6983 53.9451 33.4229C53.256 33.2561 52.4594 33.0641 51.6754 32.7086C50.7063 32.2709 50.1691 31.2595 50.1691 30.1932C50.2754 27.8538 52.4194 27.1338 54.4228 27.1338ZM19.4285 29.1429H17.1428V27.4286H19.4285V29.1429ZM25.1428 29.2001C25.5434 29.2 25.9313 29.3403 26.2392 29.5964C26.5471 29.8526 26.7556 30.2085 26.8285 30.6023H29.6514C29.3474 28.3498 27.6468 27.4561 25.0663 27.4492C22.5177 27.4423 20.5714 29.4972 20.5714 32.5806C20.5714 35.6663 22.5005 37.8275 25.0331 37.8275C26.5383 37.8275 27.4285 36.9018 27.4285 36.9018V37.7143C27.4285 37.7143 29.1828 37.7349 29.7143 37.7143V32.0001H26.8571V34.3429C26.8571 34.7976 26.6765 35.2336 26.355 35.5551C26.0335 35.8766 25.5975 36.0572 25.1428 36.0572C23.6914 36.0572 23.4548 34.0995 23.4251 33.1429C23.4137 32.7623 23.4137 32.3692 23.4308 31.9898C23.4765 30.9989 23.7508 29.2001 25.1428 29.2001ZM17.1428 37.7143H19.4285V29.7143H17.1428V37.7143Z" fill="white"/>
<path fill-rule="evenodd" clip-rule="evenodd" d="M33.1429 37.7098V33.7144H35.2995C36.5429 33.7144 36.5555 34.4447 36.5703 35.3521V37.7098H38.8572V33.7144C38.8572 33.3807 38.7646 32.8401 37.9818 32.583C38.5212 32.063 38.8572 31.095 38.8572 30.2858C38.8572 28.7087 37.7143 27.4287 36 27.4287H30.8572V37.7098H33.1429ZM35.4286 29.7144H33.1429V31.4287H35.4286C36.0595 31.4287 36.5715 31.2344 36.5715 30.6024C36.5715 29.9715 36.0595 29.7144 35.4286 29.7144Z" fill="white"/>
<path d="M25.1428 32H27.4285V34.2857H25.1428V32Z" fill="white"/>
<path d="M40 32.5692C40 29.7349 41.7714 27.1406 44.8571 27.1406C47.9429 27.1406 49.7143 29.7349 49.7143 32.5692C49.7143 35.4035 47.9429 37.9978 44.8571 37.9978C41.7714 37.9978 40 35.4035 40 32.5692ZM44.8571 29.1429C43.4286 29.1429 42.8571 31.1201 42.8571 32.5715C42.8571 34.0229 43.4286 36.0001 44.8571 36.0001C46.2857 36.0001 46.8571 34.0229 46.8571 32.5715C46.8571 31.1201 46.2857 29.1429 44.8571 29.1429Z" fill="white"/>
</g>
</g>
<defs>
<clipPath id="clip0_365_32357">
<rect width="64" height="64" fill="white"/>
</clipPath>
</defs>
</svg>
