<svg width="512" height="512" viewBox="0 0 64 64" fill="none" xmlns="http://www.w3.org/2000/svg">
<g clip-path="url(#clip0_365_32442)">
<mask id="mask0_365_32442" style="mask-type:luminance" maskUnits="userSpaceOnUse" x="0" y="0" width="64" height="64">
<path d="M64 0H0V64H64V0Z" fill="white"/>
</mask>
<g mask="url(#mask0_365_32442)">
<path d="M0 0H64V64H0V0Z" fill="#1F2C4D"/>
<path d="M40.5333 45.6178C38.118 47.0799 35.3575 47.8738 32.5345 47.9181C29.7115 47.9624 26.9274 47.2556 24.4674 45.87C22.0074 44.4845 19.9598 42.4699 18.5345 40.0328C17.1091 37.5956 16.3571 34.8234 16.3556 32C16.3556 23.1467 23.4667 16 32.1778 16C33.7884 13.777 35.9439 12.0058 38.4369 10.8567C40.9299 9.70761 43.6767 9.21926 46.4131 9.43862C49.1494 9.65799 51.7833 10.5777 54.0614 12.1093C56.3396 13.6409 58.1853 15.7329 59.4212 18.1841C60.6571 20.6352 61.2416 23.3632 61.1184 26.1055C60.9952 28.8479 60.1685 31.5124 58.7177 33.8429C57.267 36.1734 55.2411 38.0914 52.8348 39.4126C50.4285 40.7337 47.7228 41.4136 44.9778 41.3867L51.2 48H42.7733L40.5333 45.6178ZM40.5333 36.6222C41.334 35.1648 41.7424 33.5243 41.7185 31.8615C41.6945 30.1988 41.239 28.5708 40.3967 27.137C39.5543 25.7032 38.354 24.5128 36.9132 23.6824C35.4724 22.852 33.8407 22.4101 32.1778 22.4C29.6473 22.4188 27.2274 23.4397 25.4481 25.239C23.6687 27.0383 22.675 29.4695 22.6845 32C22.6858 33.5822 23.0797 35.1393 23.8307 36.5318C24.5818 37.9244 25.6665 39.1089 26.9878 39.9791C28.3091 40.8494 29.8257 41.3784 31.4016 41.5185C32.9775 41.6587 34.5636 41.4057 36.0178 40.7822L29.9378 34.2756L34.0622 29.7245L40.5333 36.6222Z" fill="url(#paint0_linear_365_32442)"/>
</g>
</g>
<defs>
<linearGradient id="paint0_linear_365_32442" x1="16.4267" y1="32" x2="51.4489" y2="32" gradientUnits="userSpaceOnUse">
<stop stop-color="#AA662D"/>
<stop offset="0.52" stop-color="#DC976C"/>
<stop offset="1" stop-color="#AA662D"/>
</linearGradient>
<clipPath id="clip0_365_32442">
<rect width="64" height="64" fill="white"/>
</clipPath>
</defs>
</svg>
