<svg width="512" height="512" viewBox="0 0 64 64" fill="none" xmlns="http://www.w3.org/2000/svg">
<g clip-path="url(#clip0_365_32403)">
<mask id="mask0_365_32403" style="mask-type:luminance" maskUnits="userSpaceOnUse" x="0" y="0" width="64" height="64">
<path d="M64 0H0V64H64V0Z" fill="white"/>
</mask>
<g mask="url(#mask0_365_32403)">
<path d="M0 0H64V64H0V0Z" fill="#F0F3FA"/>
<path d="M22.4343 18.4685L22.8572 17.1428H24V25.1428H22.8572C22.8572 25.1428 22.8229 22.2857 22.4229 20.32C22.2857 19.5428 21.3715 18.2857 20.0572 18.2857C18.7315 18.2857 18.2972 19.3028 18.2972 20.32C18.2972 22.6743 19.6915 25.0057 20.9943 27.2114C21.5657 28.1714 22.1143 29.0971 22.5257 29.9771L22.8343 30.6285C23.6915 32.4343 24.0115 33.12 24.0115 35.2114C24.0115 37.5428 22.3886 40 20.0572 40C17.7257 40 16.9143 38.6857 16.9143 38.6857L15.7372 40H14.8572V30.8571H16V32.3885C16 34.9028 16.1715 38.8571 18.8229 38.8571C20.1943 38.8571 20.5715 37.2571 20.5715 35.4971C20.5715 34.4457 20.3315 33.3714 20.0457 32.72C18.7734 30.0494 17.3344 27.4614 15.7372 24.9714C15.7372 24.9714 14.8572 23.4285 14.8572 21.5657C14.8572 20.7885 15.0172 19.9657 15.4515 19.1657C16.0229 18.1371 17.2572 17.1428 19.12 17.1428C20.9943 17.1428 22.4343 18.4685 22.4343 18.4685ZM26.2857 17.1428H32V18.2857H30.8572V36.3543C30.8572 37.5428 30.8572 38.8571 32.2743 38.8571C33.7029 38.8571 34.2857 37.9543 34.2857 36.4571V19.04C34.2857 18.6171 34.2057 18.2857 33.7486 18.2857H33.1429V17.1428H36.5715V18.2857H35.9315C35.4743 18.2857 35.4286 18.6171 35.4286 19.04V36.4571C35.4286 38.6628 34 40 31.5657 40C29.1429 40 27.4286 38.48 27.4286 35.9314V18.2857H26.2857V17.1428ZM38.8572 18.2857H40V38.0685C40 38.5028 39.92 38.8571 39.4286 38.8571H38.8572V40H42.2857V38.8571H41.68C41.2 38.8571 41.1429 38.5028 41.1429 38.0685V19.3485L45.0857 40H48V19.0514C48 18.6171 48 18.2857 49.1429 18.2857V17.1428H45.7143V18.2857H45.8057C46.6057 18.2857 46.8572 18.48 46.8572 19.2V34.0685L43.5657 17.1428H38.8572V18.2857ZM48 42.2857H14.8572V43.4285H48V42.2857ZM34.6172 46.0343L34.3429 46.5143C34.3429 46.5143 33.9657 46.2285 33.4857 46.2285C33.1086 46.2285 32.7315 46.32 32.72 46.6857C32.72 46.9714 33.0972 47.0171 33.4172 47.0514L33.6 47.0743C34.3886 47.1885 34.9257 47.36 34.9257 48.08C34.9257 48.9943 34 49.1428 33.3486 49.1428C32.5486 49.1428 32 48.7085 32 48.7085L32.2857 48.2857C32.2857 48.2857 32.8229 48.6285 33.3486 48.6285C33.92 48.6285 34.3429 48.5143 34.3429 48.1714C34.3429 47.92 34.2629 47.76 33.4857 47.6571C32.4572 47.52 32.1143 47.2343 32.1143 46.6743C32.1143 45.8171 33.0629 45.7143 33.4857 45.7143C34 45.7143 34.6172 46.0343 34.6172 46.0343ZM24.5715 46.2857H26.2857V45.7143H24V49.1428H26.2857V48.5714H24.5715V47.6571H26.2857V47.1085H24.5715V46.2857ZM28 49.1428V45.7143H28.5715V47.5085L30.0572 45.7143H30.6972L29.5772 47.0857L30.8572 49.1428H30.2286L29.2115 47.5085L28.5715 48.2857V49.1428H28ZM38.8572 45.7143V46.2857H37.7257V49.1428H37.1543V46.2857H36V45.7143H38.8572ZM40 45.7143H40.5715V49.1428H40V45.7143ZM40.2857 45.3714C40.3918 45.3714 40.4936 45.3293 40.5686 45.2542C40.6436 45.1792 40.6857 45.0775 40.6857 44.9714C40.6857 44.8653 40.6436 44.7636 40.5686 44.6886C40.4936 44.6135 40.3918 44.5714 40.2857 44.5714C40.1797 44.5714 40.0779 44.6135 40.0029 44.6886C39.9279 44.7636 39.8857 44.8653 39.8857 44.9714C39.8857 45.0775 39.9279 45.1792 40.0029 45.2542C40.0779 45.3293 40.1797 45.3714 40.2857 45.3714ZM42.8572 45.7143H42.2857V49.1428H44.5715V48.5714H42.8572V45.7143ZM22.2857 45.7143V46.2857H21.1543V49.1428H20.5829V46.2857H19.4286V45.7143H22.2857Z" fill="#20428E"/>
</g>
</g>
<defs>
<clipPath id="clip0_365_32403">
<rect width="64" height="64" fill="white"/>
</clipPath>
</defs>
</svg>
