<svg width="512" height="512" viewBox="0 0 64 64" fill="none" xmlns="http://www.w3.org/2000/svg">
<g clip-path="url(#clip0_365_32702)">
<mask id="mask0_365_32702" style="mask-type:luminance" maskUnits="userSpaceOnUse" x="0" y="0" width="64" height="64">
<path d="M64 0H0V64H64V0Z" fill="white"/>
</mask>
<g mask="url(#mask0_365_32702)">
<path d="M0 0H64V64H0V0Z" fill="#126A36"/>
<path d="M18.4754 29.7144H50.1439C50.2377 30.4629 50.2857 31.2264 50.2857 32.0001C50.2857 42.0995 42.0994 50.2858 31.9999 50.2858C31.2358 50.2858 30.4725 50.2385 29.7142 50.1441V41.1429H16.1599C15.3315 39.7113 14.7025 38.1733 14.2902 36.5715H34.2857V45.5246C37.0934 45.0487 39.6837 43.7112 41.6974 41.6975C43.7111 39.6838 45.0486 37.0936 45.5245 34.2858H13.8559C13.7615 33.5275 13.7142 32.7642 13.7142 32.0001C13.7142 21.9006 21.9005 13.7144 31.9999 13.7144C32.7737 13.7144 33.5371 13.7624 34.2857 13.8561V22.8572H47.8399C48.6683 24.2888 49.2974 25.8268 49.7097 27.4286H29.7142V18.4755C26.9065 18.9514 24.3162 20.2889 22.3025 22.3026C20.2888 24.3164 18.9513 26.9066 18.4754 29.7144Z" fill="white"/>
</g>
</g>
<defs>
<clipPath id="clip0_365_32702">
<rect width="64" height="64" fill="white"/>
</clipPath>
</defs>
</svg>
