<svg width="512" height="512" viewBox="0 0 64 64" fill="none" xmlns="http://www.w3.org/2000/svg">
<g clip-path="url(#clip0_365_32290)">
<mask id="mask0_365_32290" style="mask-type:luminance" maskUnits="userSpaceOnUse" x="0" y="0" width="64" height="64">
<path d="M64 0H0V64H64V0Z" fill="white"/>
</mask>
<g mask="url(#mask0_365_32290)">
<path d="M0 0H64V64H0V0Z" fill="#F0F3FA"/>
<path fill-rule="evenodd" clip-rule="evenodd" d="M32.72 48C24.8571 47.8171 9.14282 44.4457 9.14282 32.3428C9.24568 27.28 14.1028 17.1428 32.72 17.1428C39.4628 17.1428 54.7771 21.5885 54.7771 32.3428C55.4171 36 52.1142 43.4971 33.92 44.1143C31.3828 44.1143 32.0571 46.6971 32.72 48ZM16 28.5714V27.6914C17.1042 27.6145 18.1643 27.2272 19.058 26.5741C19.9517 25.921 20.6427 25.0287 21.0514 24H21.7143V27.4285H25.1428V28.5714H21.7143V35.8514C21.7143 36.2628 22.0571 37.0857 23.3714 37.0857C23.7371 37.0857 24.7428 36.9143 25.1428 36.2285V37.0857C24.6638 37.629 24.0772 38.067 23.4201 38.3719C22.7631 38.6768 22.0499 38.842 21.3257 38.8571C18.96 38.8571 18.2857 36.9828 18.2857 35.8514V28.5714H16ZM37.7142 28.5714V27.7143C38.8571 27.68 41.7485 26.8914 42.8571 24H43.4285V27.4285H46.8571V28.5714H43.4285V35.9085C43.4285 36.32 43.8857 37.1542 45.2343 37.1542C45.6114 37.1542 46.4571 36.9828 46.8571 36.2971V37.1542C46.4228 37.7257 45.0857 38.8571 43.1428 38.8571C40.5828 38.8571 40 37.0514 40 35.9085V28.5714H37.7142ZM27.5885 31.68C28.1257 31.7143 29.4171 31.4743 30.16 30.1943C31.1085 28.5943 31.4971 28.5714 32 28.5714C32.5028 28.5714 33.1428 28.72 33.1428 29.7371V31.3371C32.4571 31.8171 31.3143 32.5028 29.8514 33.1085C27.2914 34.1714 26.6857 35.2914 26.6857 36.7085C26.6857 38.1371 27.7485 38.8571 29.2228 38.8571C30.8571 38.8571 32.2171 37.9428 33.1771 37.1885C33.3143 37.8743 33.9771 38.8571 35.52 38.8571C37.2342 38.8571 38.3428 37.6342 38.6857 36.9714V36.3771C38.4114 36.64 37.7371 37.1771 37.2571 37.1771C36.7657 37.1771 36.5942 36.4457 36.5714 36.08V29.7371C36.5485 29.0057 35.4857 27.4285 32 27.4285C27.6342 27.4285 26.6857 30.5485 26.6857 31.04C26.6857 31.44 27.28 31.6343 27.5885 31.68ZM33.1428 35.6343V32.8457C31.8285 33.2 29.8514 34.3885 29.8514 35.5657C29.8514 36.6743 30.6743 36.96 31.0857 36.9714C31.9657 36.9714 32.6857 36.2857 33.1428 35.6343Z" fill="#E30917"/>
</g>
</g>
<defs>
<clipPath id="clip0_365_32290">
<rect width="64" height="64" fill="white"/>
</clipPath>
</defs>
</svg>
