<svg width="512" height="512" viewBox="0 0 65 65" fill="none" xmlns="http://www.w3.org/2000/svg">
<g clip-path="url(#clip0_1_2652)">
<path d="M0.5 0.5H64.5V64.5H0.5V0.5Z" fill="#0391C0"/>
<path d="M37.7587 19.5827L39.1098 18.2778L53.8333 32.5001L52.4822 33.8049L37.7587 19.5827ZM33.3996 23.7925L34.7507 22.4876L49.4778 36.7098L48.1267 38.0147L33.3996 23.7925ZM37.1578 35.8387L38.3596 34.6761L44.9693 41.0618L43.7676 42.2245L37.1542 35.8387H37.1578Z" fill="white"/>
<path d="M29.044 28.0023L30.2458 26.6938L38.3596 34.6761L37.1578 35.8387L29.044 28.0023Z" fill="#F63240"/>
<path d="M32.5 40.3364L33.8511 39.0315L40.4644 45.4173L39.1133 46.7222L32.5 40.3364Z" fill="white"/>
<path d="M24.3862 32.5L25.7373 31.1951L33.8511 39.0315L32.5 40.3364L24.3862 32.5Z" fill="#F63240"/>
<path d="M11.1667 32.5L12.3684 31.1951L27.0885 45.5595L25.8902 46.7222L11.1667 32.5ZM15.5222 28.2902L16.724 26.9853L31.5969 41.2075L30.2458 42.5124L15.5222 28.2902ZM19.8778 23.9382L21.2324 22.6333L27.8458 29.0155L26.4911 30.324L19.8778 23.9382Z" fill="white"/>
<path d="M26.4911 30.3241L27.8422 29.0156L35.956 36.8556L34.7542 38.1605L26.4911 30.3241Z" fill="#F63240"/>
<path d="M24.3862 19.5827L25.7373 18.4236L32.3507 24.8094L30.9996 25.9685L24.3862 19.5827Z" fill="white"/>
<path d="M30.996 25.9684L32.3471 24.8093L40.4644 32.6422L39.1133 33.9471L30.9996 25.9649L30.996 25.9684Z" fill="#F63240"/>
</g>
<defs>
<clipPath id="clip0_1_2652">
<rect width="64" height="64" fill="white" transform="translate(0.5 0.5)"/>
</clipPath>
</defs>
</svg>
