<svg width="512" height="512" viewBox="0 0 64 64" fill="none" xmlns="http://www.w3.org/2000/svg">
<g clip-path="url(#clip0_365_32353)">
<mask id="mask0_365_32353" style="mask-type:luminance" maskUnits="userSpaceOnUse" x="0" y="0" width="64" height="64">
<path d="M64 0H0V64H64V0Z" fill="white"/>
</mask>
<g mask="url(#mask0_365_32353)">
<path d="M0 0H64V64H0V0Z" fill="#F0F3FA"/>
<path d="M12.5715 29.7142V34.4113C12.5944 34.7313 12.8001 34.9942 13.1544 34.9828C13.4972 34.9599 13.7144 34.7656 13.7144 34.4113V29.7142H15.4287V36.5713H13.7144V35.5085C13.5315 36.0342 12.8801 36.5713 12.2744 36.5713C11.1772 36.5713 10.8572 35.7713 10.8572 35.1313V29.7142H12.5715ZM37.9658 29.7142C39.8515 29.7142 40.4458 30.2285 40.4458 31.7256V35.5999C40.4458 35.8513 40.5258 36.3313 40.6058 36.5713H38.8344L38.6972 35.7485C38.2172 36.2742 37.8172 36.5713 37.063 36.5713C35.9772 36.5713 35.303 35.7485 35.303 34.7428C35.303 33.4399 36.1372 33.017 36.9715 32.7313L37.4173 32.5942C38.0687 32.3999 38.6287 32.2399 38.6287 31.6342C38.6287 31.257 38.4115 30.857 38.0344 30.857C37.3715 30.857 37.3372 31.3713 37.303 31.9199V31.9999H35.3944C35.303 30.2856 36.4344 29.7142 37.9658 29.7142ZM52.7887 29.7142C54.3887 29.7142 55.2115 30.4685 55.2115 31.9999V34.457C55.1087 35.9999 54.2401 36.5713 52.7887 36.5713C51.4287 36.5713 50.2858 35.9999 50.2858 34.457V31.9999C50.2858 30.2513 51.3144 29.7142 52.8001 29.7142H52.7887ZM48.9944 27.4285V29.7142H50.1144V31.257H48.9944V34.6856C48.9944 35.0856 49.3715 35.1656 49.623 35.1656C49.783 35.1428 49.863 35.1428 49.9887 35.1428H50.103V36.5142C49.703 36.5713 49.303 36.5713 48.8915 36.5713C47.863 36.5713 47.2915 36.0799 47.2915 35.0513V31.257H46.5373V29.7142H47.2801V27.4285H48.9944ZM31.2458 27.4285V29.2685H29.4287V36.5713H27.7144V29.2685H25.7715V27.4285H31.2458ZM10.0458 27.4285V29.2685H8.30868V36.5713H6.59439V29.2685H4.57153V27.4285H10.0458ZM19.8058 29.7142V31.8856C19.6175 31.8488 19.4262 31.8297 19.2344 31.8285C18.6858 31.8285 18.3201 31.9428 18.2858 32.5028V36.5713H16.5715V29.7142H18.2858V30.9142C18.503 30.1828 19.0058 29.7142 19.8058 29.7142ZM34.6858 29.7142V31.8856C34.4975 31.8488 34.3062 31.8297 34.1144 31.8285C33.5658 31.8285 33.1772 31.9428 33.143 32.5028V36.5713H31.4287V29.7142H33.143V30.9142C33.3601 30.1828 33.8972 29.7142 34.6858 29.7142ZM22.2858 27.4285V31.8056L23.8515 29.7142H25.9315L24.0458 32.2742L25.9658 36.5713H24.1944L22.8458 33.7142L22.2858 34.5256V36.5713H20.5715V27.4285H22.2858ZM52.8001 31.0628C52.343 31.0628 52.0001 31.4056 52.0001 31.8628V34.5713C52.0344 34.9599 52.4001 35.1656 52.8001 35.1656C53.1887 35.1656 53.4515 34.9599 53.4858 34.5713V31.8513C53.4858 31.417 53.2344 31.0628 52.8001 31.0628ZM38.6287 33.3485L38.2058 33.5542C38.0001 33.6456 37.8172 33.737 37.6687 33.8399C37.143 34.217 37.0172 35.1428 37.9315 35.1428C38.7201 35.1428 38.6744 34.3313 38.6401 33.6913L38.6287 33.3485ZM12.5715 27.4285V28.9028H10.8572V27.4285H12.5715ZM15.4287 27.4285V28.9028H13.7144V27.4285H15.4287ZM55.0515 27.4285V28.7885H53.143V27.4285H55.0401H55.0515ZM52.4573 27.4285V28.7885H50.5601V27.4285H52.4573ZM59.4287 29.7142V31.8856C59.2288 31.8488 59.0262 31.8297 58.823 31.8285C58.2515 31.8285 57.7487 31.9428 57.7144 32.5028V36.5713H56.0001V29.7142H57.7144V30.9142C57.8276 30.553 58.0571 30.2394 58.3672 30.0223C58.6773 29.8052 59.0505 29.6969 59.4287 29.7142ZM42.8572 31.8056V27.4285H41.143V36.5713H42.8572V34.5256L43.4173 33.7256L44.7658 36.5713H46.5373L44.6173 32.2742L46.503 29.7142H44.423L42.8572 31.8056Z" fill="black"/>
</g>
</g>
<defs>
<clipPath id="clip0_365_32353">
<rect width="64" height="64" fill="white"/>
</clipPath>
</defs>
</svg>
