<svg width="512" height="512" viewBox="0 0 64 64" fill="none" xmlns="http://www.w3.org/2000/svg">
<g clip-path="url(#clip0_365_32576)">
<mask id="mask0_365_32576" style="mask-type:luminance" maskUnits="userSpaceOnUse" x="0" y="0" width="64" height="64">
<path d="M64 0H0V64H64V0Z" fill="white"/>
</mask>
<g mask="url(#mask0_365_32576)">
<path d="M0 0H64V64H0V0Z" fill="#004890"/>
<path d="M16.7234 41.1429H14.5303C13.5668 41.1349 12.5714 40.688 12.5714 39.5543V37.1429H15.8285C17.5714 37.1429 18.2857 38.0297 18.2857 38.0297V34.0686C18.2857 34.0686 17.64 34.8617 15.8285 34.8617H12.5714V30.8571H16.288C18.3817 30.8571 19.4285 32 19.4285 32V28.568H9.14282C9.14282 28.568 10.2857 29.0526 10.2857 31.8926V39.9909C10.2857 42.6434 9.14282 43.4286 9.14282 43.4286H19.4285V39.9989C19.4285 40.0149 18.9245 41.1429 16.7234 41.1429ZM40.7234 41.1429H38.5302C37.5668 41.1349 36.5714 40.688 36.5714 39.5543V37.1429H39.8285C41.5714 37.1429 42.2857 38.0297 42.2857 38.0297V34.0686C42.2857 34.0686 41.64 34.8617 39.8285 34.8617H36.5714V30.8571H40.288C42.3817 30.8571 43.4285 32 43.4285 32V28.568H33.1428C33.1428 28.568 34.2857 29.0526 34.2857 31.8926V39.9909C34.2857 42.6434 33.1428 43.4286 33.1428 43.4286H43.4285V39.9989C43.4285 40.0149 42.9245 41.1429 40.7234 41.1429ZM22.8571 31.8857V39.9737C22.8571 42.6217 21.7143 43.4286 21.7143 43.4286H26.2857C26.2857 43.4286 25.1428 42.6377 25.1428 39.9817V36.5714H28.4914C30.2537 36.5714 30.8571 37.4057 30.8571 37.4057V33.4743C30.8571 33.4743 30.3314 34.2846 28.4914 34.2846H25.1428V30.856H28.9554C31.0731 30.8571 32 32 32 32V28.568H21.7143C21.7143 28.56 22.8571 29.0434 22.8571 31.8857ZM46.8571 32.344C46.8331 31.2857 48.0228 30.8571 49.6537 30.8571C52.0994 30.8571 53.7142 32.1166 53.7142 32.1166V28.6309C53.7142 28.6309 53.288 29.1051 51.8171 28.7806C51.1018 28.6592 50.3789 28.5882 49.6537 28.568C46.5805 28.568 44.5154 30.2503 44.5725 32.5177C44.6868 36.8629 52.4982 36.5554 52.5714 39.2331C52.6045 40.5451 50.4742 41.1429 48.832 41.1429C46.8891 41.1429 44.5725 39.9874 44.5725 39.9874V42.6206C45.6377 42.9291 47.3771 43.4286 48.9782 43.4286C52.5725 43.4286 54.824 41.7463 54.8571 39.1314C54.9211 34.272 46.9222 34.6514 46.8571 32.344ZM11.504 25.3977C11.4263 25.664 11.3405 25.9223 11.2548 26.1794C11.1709 26.4416 11.1135 26.7115 11.0834 26.9851L11.1771 27.2514L11.4023 27.4286H9.14282L9.63425 26.9211L9.92225 26.2686L11.5188 21.7806L11.6445 21.3851L11.6983 20.9669L11.6445 20.7497L11.512 20.5714H13.7863L13.6468 20.7486L13.584 20.9657L13.6548 21.3851L13.7874 21.7806L15.2445 26.1234L15.5405 26.832L16 27.4286H13.7634L13.9737 27.2194L14.0525 26.9371C14.0525 26.6949 14.0057 26.4457 13.904 26.1634C13.8103 25.8891 13.7245 25.632 13.6548 25.3977H11.504ZM12.6023 21.7806L11.808 24.4069H13.3657L12.6023 21.7806ZM25.4811 25.3977C25.4034 25.664 25.3177 25.9223 25.232 26.1794C25.1481 26.4416 25.0906 26.7115 25.0605 26.9851L25.1531 27.2514L25.3794 27.4286H23.12L23.6114 26.9211L23.8994 26.2686L25.496 21.7806L25.6217 21.3851L25.6754 20.9669L25.6217 20.7497L25.4891 20.5714H27.7634L27.624 20.7486L27.5611 20.9657L27.632 21.3851L27.7645 21.7806L29.2205 26.1234L29.5177 26.832L29.9771 27.4286H27.7405L27.9508 27.2194L28.0285 26.9371C28.0285 26.6949 27.9828 26.4457 27.88 26.1634C27.7874 25.8891 27.6937 25.648 27.624 25.4137H25.4811V25.3977ZM26.5794 21.7806L25.7851 24.4069H27.3428L26.5794 21.7806ZM21.0971 25.1829V22.2297L21.0891 21.7783L21.0285 21.328L20.8765 20.9257L20.5863 20.5714H22.7497L22.4377 20.9017L22.2708 21.304L22.2091 21.7623L22.2023 22.2217V26.0526L22.2171 26.4469C22.2788 26.9589 22.7577 27.4286 22.7577 27.4286H20.9897L18.2857 22.688V26.0594L18.3737 26.8091L18.7508 27.4286H16.632L17.0514 26.8091L17.1428 26.0606V21.9154L17.0434 21.1749L16.632 20.5714H18.4914L21.0971 25.1829ZM32.6628 20.5714C34.7908 20.5714 35.4285 21.96 35.4285 24.0034C35.4285 26.0571 34.8068 27.4286 32.6708 27.4286H30.3771L30.7965 26.8731L30.8571 26.1954V21.6594L30.8034 21.248L30.6514 20.8857L30.3771 20.5714H32.6628ZM34.2857 24.0034C34.2857 22.4126 33.7142 21.7177 32 21.7177V26.2857C33.5337 26.2857 34.2857 25.5954 34.2857 24.0034ZM42.2857 23.9966C42.2857 24.4389 42.2228 24.8731 42.1142 25.2926C42.0114 25.704 41.84 26.0777 41.6057 26.3954C41.374 26.7123 41.0715 26.9706 40.7222 27.1497C40.3702 27.336 39.9337 27.4286 39.432 27.4286C38.9245 27.4286 38.4948 27.336 38.1348 27.1486C37.7857 26.9697 37.4832 26.7118 37.2514 26.3954C37.0119 26.0634 36.8371 25.6893 36.736 25.2926C36.6252 24.8695 36.5698 24.4339 36.5714 23.9966C36.5714 23.5451 36.6263 23.1189 36.736 22.6994C36.8445 22.288 37.0171 21.9223 37.2514 21.6046C37.4777 21.2857 37.7828 21.0377 38.1348 20.8503C38.4948 20.664 38.9234 20.5714 39.432 20.5714C39.9325 20.5714 40.3702 20.664 40.7222 20.8514C41.0902 21.0377 41.3794 21.2937 41.6057 21.6046C41.84 21.9223 42.0125 22.288 42.1131 22.6994C42.2228 23.1109 42.2857 23.5451 42.2857 23.9966ZM41.1428 23.9966C41.1268 22.6994 40.5314 21.7143 39.4171 21.7143C38.248 21.7143 37.7234 22.6994 37.7142 23.9966C37.7051 25.2926 38.2925 26.2857 39.4171 26.2857C40.5748 26.2857 41.1588 25.2926 41.1428 23.9966ZM46.9405 27.4286H42.9177L43.3291 26.864L43.4285 26.1874V21.6594L43.3748 21.248L43.2308 20.8857L42.9565 20.5714H45.0434L44.7622 20.8857L44.6251 21.248L44.5714 21.6594V22.0777L44.568 26.2857H45.7417L46.2445 26.1874L46.7085 25.9783L47.1154 25.728L46.9405 27.4286ZM49.7165 20.5634L49.2434 21.1154L49.1428 21.7691V24.5109C49.1428 25.6857 49.9314 26.3029 50.8868 26.3029C51.9154 26.3029 52.5714 25.4869 52.5714 24.6537V21.6514L52.4605 21.2491L52.2971 20.8949L51.9794 20.5863L54.2937 20.5794L53.8205 21.1234L53.7428 21.7771V24.6537C53.7428 25.072 53.6914 25.4503 53.5965 25.8126C53.4937 26.1669 53.2697 26.4983 52.9165 26.7897C52.6449 27.0229 52.3248 27.1928 51.9794 27.2869C51.623 27.382 51.2557 27.4296 50.8868 27.4286C50.5074 27.4286 50.1554 27.3817 49.8022 27.2869C49.454 27.1929 49.1309 27.0232 48.856 26.7897C48.512 26.4983 48.28 26.1749 48.176 25.8126C48.0665 25.4357 48.0073 25.0461 48 24.6537V21.6514L47.9702 21.2491L47.8068 20.8949L47.488 20.5863L49.7165 20.5794V20.5634Z" fill="white"/>
</g>
</g>
<defs>
<clipPath id="clip0_365_32576">
<rect width="64" height="64" fill="white"/>
</clipPath>
</defs>
</svg>
