<svg width="512" height="512" viewBox="0 0 64 64" fill="none" xmlns="http://www.w3.org/2000/svg">
<g clip-path="url(#clip0_365_32523)">
<mask id="mask0_365_32523" style="mask-type:luminance" maskUnits="userSpaceOnUse" x="0" y="0" width="64" height="64">
<path d="M64 0H0V64H64V0Z" fill="white"/>
</mask>
<g mask="url(#mask0_365_32523)">
<path d="M0 0H64V64H0V0Z" fill="#F93441"/>
<path d="M16.5715 41.9234C16.5715 42.16 16.48 42.2857 16.2732 42.2857H15.1577C14.9577 42.2857 14.8572 42.1669 14.8572 41.9257V35.792C14.8572 35.552 14.952 35.4309 15.1577 35.4309H16.2697C16.4709 35.4309 16.5715 35.5451 16.5715 35.792V41.9234ZM18.2857 41.92V40.9406C18.2857 40.6949 18.3829 40.5703 18.5829 40.5703H23.3715C23.4583 40.5703 23.5017 40.5417 23.52 40.4697C23.5323 40.4276 23.5282 40.3823 23.5085 40.3431C23.4887 40.3039 23.4549 40.2736 23.4137 40.2583C23.3029 40.2137 19.5395 38.9211 19.3795 38.856C18.5932 38.5337 18.2972 37.9257 18.2972 37.1806C18.2972 36.2377 18.8183 35.4297 20.0286 35.4297H24.848C25.0537 35.4297 25.1429 35.544 25.1429 35.7851L25.1395 36.7737C25.1395 37.0217 25.0457 37.1429 24.848 37.1429H20.0823C19.9863 37.1429 19.9395 37.1657 19.9257 37.232C19.9097 37.3006 19.9143 37.3954 20.0286 37.4377C20.1726 37.4926 23.328 38.56 23.9086 38.7897C24.8035 39.1417 25.1395 39.6469 25.1395 40.5954C25.1395 41.728 24.4995 42.264 23.3989 42.2811C22.984 42.288 18.5863 42.2811 18.5863 42.2811C18.376 42.2823 18.2857 42.1851 18.2857 41.92ZM41.1429 41.92V40.9406C41.1429 40.6949 41.0457 40.5703 40.8457 40.5703H36.0572C35.9703 40.5703 35.9269 40.5417 35.9086 40.4697C35.8963 40.4276 35.9005 40.3823 35.9202 40.3431C35.9399 40.3039 35.9737 40.2736 36.0149 40.2583C36.1257 40.2137 39.8892 38.9211 40.0492 38.856C40.8355 38.5337 41.1315 37.9257 41.1315 37.1806C41.1315 36.2377 40.6103 35.4297 39.4 35.4297H34.5806C34.3749 35.4297 34.2857 35.544 34.2857 35.7851L34.2892 36.7737C34.2892 37.0217 34.3829 37.1429 34.5806 37.1429H39.3463C39.4423 37.1429 39.4892 37.1657 39.5029 37.232C39.5189 37.3006 39.5143 37.3954 39.4 37.4377C39.256 37.4926 36.1006 38.56 35.52 38.7897C34.6252 39.1417 34.2892 39.6469 34.2892 40.5954C34.2892 41.728 34.9292 42.264 36.0297 42.2811C36.4446 42.288 40.8423 42.2811 40.8423 42.2811C41.0526 42.2823 41.1429 42.1851 41.1429 41.92ZM52.8343 25.1429C53.0823 25.1429 53.2046 25.2549 53.2046 25.5017V29.2549C53.2046 29.8994 53.4549 30.264 54.3589 30.2926H55.3783C56.2812 30.264 56.5075 29.8994 56.5086 29.2549V25.5017C56.5086 25.2583 56.6 25.1429 56.8629 25.1429L57.9189 25.1451C58.1737 25.1451 58.2857 25.2617 58.2857 25.5051V29.7154C58.2857 30.8446 58.0926 31.952 55.8857 31.9886C54.7966 32.0069 54.8526 32 53.7623 31.9886C51.68 31.9646 51.4286 30.7966 51.4286 29.7143V25.504C51.4286 25.264 51.5395 25.1463 51.7943 25.1463L52.8343 25.1451V25.1429ZM27.6915 35.4286C27.9395 35.4286 28.0617 35.5394 28.0617 35.7863V39.5394C28.0617 40.1829 28.312 40.5486 29.216 40.5771H30.2355C31.1383 40.5486 31.3646 40.1829 31.3657 39.5394V35.7863C31.3657 35.5429 31.4572 35.4274 31.72 35.4274L32.776 35.4297C33.0309 35.4297 33.1429 35.5463 33.1429 35.7897V40C33.1429 41.1303 32.9497 42.2366 30.7429 42.2731C29.6537 42.2914 29.7097 42.2846 28.6195 42.2731C26.5372 42.2491 26.2857 41.0811 26.2857 39.9989V35.7886C26.2857 35.5486 26.3966 35.4309 26.6515 35.4309L27.6915 35.4286ZM43.6915 35.4286C43.9395 35.4286 44.0617 35.5394 44.0617 35.7863V39.5394C44.0617 40.1829 44.312 40.5486 45.216 40.5771H46.2355C47.1383 40.5486 47.3646 40.1829 47.3657 39.5394V35.7863C47.3657 35.5429 47.4572 35.4274 47.72 35.4274L48.776 35.4297C49.0309 35.4297 49.1429 35.5463 49.1429 35.7897V40C49.1429 41.1303 48.9497 42.2366 46.7429 42.2731C45.6537 42.2914 45.7097 42.2846 44.6195 42.2731C42.5372 42.2491 42.2857 41.0811 42.2857 39.9989V35.7886C42.2857 35.5486 42.3966 35.4309 42.6515 35.4309L43.6915 35.4286Z" fill="white"/>
<path d="M50.2858 30.6194C50.2859 30.574 50.277 30.529 50.2596 30.4871C50.2421 30.4452 50.2164 30.4072 50.184 30.3754C50.1517 30.3436 50.1132 30.3185 50.0711 30.3017C50.0289 30.285 49.9837 30.2768 49.9384 30.2777L49.6641 30.2857H48.6435C47.7406 30.256 47.4904 29.8914 47.4904 29.248V25.5017C47.4904 25.2549 47.3681 25.144 47.1212 25.144H46.0789C45.8252 25.144 45.7144 25.2617 45.7144 25.5017V29.7074C45.7144 30.7874 45.9658 31.9543 48.0481 31.9783C48.8069 31.9863 48.5658 31.9989 48.5658 31.9989C49.0275 31.9943 49.4892 31.992 49.9521 31.9829C50.0414 31.9811 50.1264 31.9442 50.1889 31.8803C50.2513 31.8164 50.2861 31.7305 50.2858 31.6411V30.6194Z" fill="white"/>
<path fill-rule="evenodd" clip-rule="evenodd" d="M39.4286 25.1429C38.974 25.1429 38.5379 25.3235 38.2165 25.645C37.895 25.9665 37.7144 26.4025 37.7144 26.8571V30.2857C37.7144 30.7404 37.895 31.1764 38.2165 31.4979C38.5379 31.8194 38.974 32 39.4286 32H42.8572C43.3119 32 43.7479 31.8194 44.0694 31.4979C44.3909 31.1764 44.5715 30.7404 44.5715 30.2857V26.8571C44.5715 26.4025 44.3909 25.9665 44.0694 25.645C43.7479 25.3235 43.3119 25.1429 42.8572 25.1429H39.4286ZM40.3429 26.8571C40.1004 26.8571 39.8679 26.9535 39.6964 27.1249C39.525 27.2964 39.4286 27.5289 39.4286 27.7714V29.3714C39.4286 29.6139 39.525 29.8465 39.6964 30.0179C39.8679 30.1894 40.1004 30.2857 40.3429 30.2857H41.9429C42.1854 30.2857 42.418 30.1894 42.5894 30.0179C42.7609 29.8465 42.8572 29.6139 42.8572 29.3714V27.7714C42.8572 27.5289 42.7609 27.2964 42.5894 27.1249C42.418 26.9535 42.1854 26.8571 41.9429 26.8571H40.3429ZM34.8572 25.1429H30.0572C29.9663 25.1429 29.8791 25.179 29.8148 25.2433C29.7505 25.3076 29.7144 25.3948 29.7144 25.4857V31.6571C29.7144 31.7481 29.7505 31.8353 29.8148 31.8996C29.8791 31.9639 29.9663 32 30.0572 32H34.8572C35.3119 32 35.7479 31.8194 36.0694 31.4979C36.3909 31.1764 36.5715 30.7404 36.5715 30.2857V26.8571C36.5715 26.4025 36.3909 25.9665 36.0694 25.645C35.7479 25.3235 35.3119 25.1429 34.8572 25.1429ZM33.9429 26.8571H31.7715C31.6806 26.8571 31.5934 26.8933 31.5291 26.9576C31.4648 27.0219 31.4286 27.1091 31.4286 27.2V29.9429C31.4286 29.9879 31.4375 30.0325 31.4547 30.0741C31.472 30.1157 31.4972 30.1535 31.5291 30.1853C31.5609 30.2171 31.5987 30.2424 31.6403 30.2596C31.6819 30.2768 31.7265 30.2857 31.7715 30.2857H33.9429C34.1854 30.2857 34.418 30.1894 34.5894 30.0179C34.7609 29.8465 34.8572 29.6139 34.8572 29.3714V27.7714C34.8572 27.5289 34.7609 27.2964 34.5894 27.1249C34.418 26.9535 34.1854 26.8571 33.9429 26.8571ZM23.4904 31.6411C23.4904 31.8869 23.3681 31.9977 23.1212 31.9977H22.0789C21.8252 31.9977 21.7144 31.88 21.7144 31.64V27.4343C21.7144 26.3543 21.9658 25.1874 24.0481 25.1634C24.8069 25.1554 25.7086 25.1429 25.7086 25.1429C25.7086 25.1429 25.4138 25.1509 26.1715 25.1634C28.3784 25.2 28.5715 26.3051 28.5715 27.4331V31.6366C28.5715 31.88 28.4595 31.9966 28.2058 31.9966L27.1486 31.9989C26.8858 31.9989 26.7944 31.8846 26.7944 31.6411V29.7143H23.4915L23.4904 31.6411ZM23.4904 28H26.7932V27.8937C26.7932 27.2503 26.5669 26.8857 25.6641 26.8571H24.6435C23.7406 26.8857 23.4904 27.2503 23.4904 27.8937V28ZM7.49036 31.6411C7.49036 31.8869 7.36807 31.9977 7.12121 31.9977H6.08007C5.82521 31.9977 5.71436 31.88 5.71436 31.64V27.4343C5.71436 26.3543 5.96578 25.1874 8.04807 25.1634C8.80693 25.1554 9.70864 25.1429 9.70864 25.1429C9.70864 25.1429 9.41378 25.1509 10.1715 25.1634C12.3784 25.2 12.5715 26.3051 12.5715 27.4331V31.6366C12.5715 31.88 12.4595 31.9966 12.2058 31.9966L11.1475 32C10.8846 32 10.7932 31.8857 10.7932 31.6423V29.7143H7.49036V31.6411ZM7.49036 28H10.7932V27.8937C10.7932 27.2503 10.5669 26.8857 9.66407 26.8571H8.6435C7.74064 26.8857 7.49036 27.2503 7.49036 27.8937V28Z" fill="white"/>
<path d="M14.9201 25.1429C15.0804 25.1427 15.239 25.1764 15.3855 25.2415C15.532 25.3067 15.6631 25.402 15.7704 25.5211L18.8572 28.9566V25.4857C18.8572 25.4407 18.8661 25.3961 18.8833 25.3545C18.9005 25.3129 18.9258 25.2751 18.9576 25.2433C18.9895 25.2114 19.0273 25.1862 19.0689 25.169C19.1105 25.1517 19.155 25.1429 19.2001 25.1429H20.2286C20.3196 25.1429 20.4068 25.179 20.4711 25.2433C20.5354 25.3076 20.5715 25.3948 20.5715 25.4857V31.6571C20.5715 31.7481 20.5354 31.8353 20.4711 31.8996C20.4068 31.9639 20.3196 32 20.2286 32H19.3601C19.2016 31.9999 19.0449 31.9668 18.8999 31.9028C18.7549 31.8389 18.6248 31.7455 18.5178 31.6286L15.4286 28.2514V31.6571C15.4286 31.7022 15.4198 31.7468 15.4025 31.7883C15.3853 31.8299 15.3601 31.8677 15.3282 31.8996C15.2964 31.9314 15.2586 31.9567 15.217 31.9739C15.1754 31.9911 15.1308 32 15.0858 32H14.0572C14.0122 32 13.9676 31.9911 13.926 31.9739C13.8844 31.9567 13.8466 31.9314 13.8148 31.8996C13.7829 31.8677 13.7577 31.8299 13.7405 31.7883C13.7232 31.7468 13.7144 31.7022 13.7144 31.6571V25.4857C13.7144 25.3948 13.7505 25.3076 13.8148 25.2433C13.8791 25.179 13.9663 25.1429 14.0572 25.1429H14.9201Z" fill="white"/>
</g>
</g>
<defs>
<clipPath id="clip0_365_32523">
<rect width="64" height="64" fill="white"/>
</clipPath>
</defs>
</svg>
