<svg width="512" height="512" viewBox="0 0 64 64" fill="none" xmlns="http://www.w3.org/2000/svg">
<g clip-path="url(#clip0_365_32696)">
<mask id="mask0_365_32696" style="mask-type:luminance" maskUnits="userSpaceOnUse" x="0" y="0" width="64" height="64">
<path d="M64 0H0V64H64V0Z" fill="white"/>
</mask>
<g mask="url(#mask0_365_32696)">
<path d="M0 0H64V64H0V0Z" fill="#F0F3FA"/>
<path d="M13.448 25.1451L16 32.5371C15.128 33.4926 13.2823 34.8937 11.2183 35.712C9.71541 36.3051 8.16798 36.504 6.85598 36.5703L4.57141 29.3417C6.08113 29.1726 7.80798 28.7749 9.0857 28.184C10.7096 27.4387 12.187 26.4087 13.448 25.1429V25.1451Z" fill="#F51D29"/>
<path d="M49.104 36.5749H47.1611L51.1063 27.4286H53.0491L49.104 36.5749ZM52.1303 25.1429H54.1017L53.2206 27.1269H51.248L52.1303 25.1429ZM48.8171 25.1429H50.76L45.6697 36.5749H43.7269L48.8171 25.1429ZM43.5406 29.68C43.5406 29.3211 43.3646 29.08 42.9531 29.08C42.3931 29.08 41.4949 29.7863 40.6709 31.0023C40.5195 31.2292 40.3821 31.465 40.2594 31.7086C42.0549 31.5886 43.5406 30.7486 43.5406 29.6811V29.68ZM39.4948 33.8857C39.4948 34.5017 39.744 34.7863 40.288 34.7863C40.9966 34.7863 41.8628 34.2766 42.9234 33.2251L43.6 34.7417C42.6583 35.7783 41.3486 36.5749 40.0823 36.5749C38.5223 36.5749 37.6686 35.704 37.6686 34.216C37.6686 33.136 38.096 31.8594 38.92 30.5669C40.0823 28.7349 41.6571 27.4286 43.2903 27.4286C44.5566 27.4286 45.3509 28.224 45.3509 29.456C45.3509 31.6183 43.1291 33.136 39.6114 33.2709C39.5383 33.5257 39.4948 33.7509 39.4948 33.8857ZM36.7006 29.9509C36.7006 29.5154 36.4949 29.2754 35.9806 29.2754C35.3611 29.2754 34.5371 29.8914 33.816 30.8983C32.9337 32.1291 32.4914 33.1954 32.4914 34.0354C32.4914 34.472 32.7417 34.7417 33.184 34.7417C33.8891 34.7417 34.9189 33.9314 35.832 32.6251L36.5828 34.232C35.728 35.4034 34.448 36.5749 32.8446 36.5749C31.432 36.5749 30.6217 35.584 30.6217 34.2171C30.6217 32.7166 31.3429 31.2731 32.3131 29.9977C33.5223 28.4046 34.9349 27.4286 36.288 27.4286C37.6869 27.4286 38.408 28.2857 38.408 29.5314C38.408 29.8469 38.3646 30.2069 38.2903 30.4777L36.5531 30.7326C36.6438 30.4815 36.6928 30.2177 36.7006 29.9509ZM31.7143 27.4286C32.0674 27.4286 32.3623 27.5337 32.6857 27.7303L31.64 29.6663C31.4777 29.6206 31.3897 29.5909 31.1097 29.5909C30.0206 29.5909 28.9463 30.7771 28.064 32.8343L26.5017 36.5749H24.5589L28.5371 27.4286H30.4503L29.552 29.2903C30.2857 28.1189 30.816 27.4286 31.7143 27.4286ZM20.0731 34.2023C20.0731 34.6674 20.2937 34.936 20.7794 34.936C21.56 34.936 22.4571 34.0811 23.0903 32.8949C23.1793 32.7274 23.2628 32.557 23.3406 32.384C20.9406 32.5337 20.072 33.3006 20.072 34.2011L20.0731 34.2023ZM24.0171 30.0103C24.0171 29.4846 23.84 29.2309 23.3703 29.2309C22.7074 29.2309 21.6914 29.8766 20.7497 30.8217L20.3086 29.1406C21.2503 28.2389 22.5314 27.4286 23.7531 27.4286C25.0183 27.4286 25.8137 28.3143 25.8137 29.6663C25.8137 30.7314 25.328 32.2194 24.68 33.3749C23.7234 35.1029 22.3543 36.5749 20.6034 36.5749C19.2057 36.5749 18.2777 35.6891 18.2777 34.352C18.2777 32.2491 20.1771 31.0777 23.8857 30.928C23.9726 30.5966 24.0171 30.2971 24.0171 30.0103ZM32.8446 36.688L33.3566 38.1234C33.0819 38.3924 32.7552 38.6024 32.3966 38.7406C32.096 38.8571 31.7851 38.8457 31.5223 38.8571L31.0629 37.5029C31.3669 37.4709 31.7131 37.3943 31.9703 37.2789C32.3817 37.0949 32.656 36.8686 32.8446 36.688ZM52.7029 36.5749H50.76L55.5428 25.1429H57.4857L55.2788 30.3429L58.9429 27.3086L59.4286 28.9897L56.1177 31.6183L56.9269 36.5749H55.1463L54.5131 32.1131L52.7029 36.5749Z" fill="black"/>
</g>
</g>
<defs>
<clipPath id="clip0_365_32696">
<rect width="64" height="64" fill="white"/>
</clipPath>
</defs>
</svg>
