<svg width="512" height="512" viewBox="0 0 64 64" fill="none" xmlns="http://www.w3.org/2000/svg">
<g clip-path="url(#clip0_365_32678)">
<mask id="mask0_365_32678" style="mask-type:luminance" maskUnits="userSpaceOnUse" x="0" y="0" width="64" height="64">
<path d="M64 0H0V64H64V0Z" fill="white"/>
</mask>
<g mask="url(#mask0_365_32678)">
<path d="M0 0H64V64H0V0Z" fill="url(#paint0_linear_365_32678)"/>
<path d="M36.8 20.7644L32.8178 25.8844L28.8 30.9333C28.732 31.0233 28.6413 31.0937 28.5373 31.1374C28.4333 31.1811 28.3195 31.1965 28.2076 31.182C28.0957 31.1676 27.9896 31.1238 27.9001 31.0552C27.8106 30.9865 27.7408 30.8954 27.6978 30.7911L25.3511 24.7111L23.0044 18.6311C22.9532 18.5005 22.9464 18.3566 22.9849 18.2217C23.0235 18.0868 23.1053 17.9683 23.2178 17.8844C23.3473 17.7784 23.5133 17.7273 23.68 17.7422L30.0444 18.7022L36.3733 19.6978C36.48 19.6978 36.5867 19.7333 36.6578 19.8044C36.7276 19.8566 36.786 19.9225 36.8294 19.998C36.8728 20.0735 36.9004 20.1571 36.9104 20.2437C36.9203 20.3302 36.9125 20.4179 36.8875 20.5013C36.8624 20.5848 36.8205 20.6622 36.7644 20.7289L36.8 20.7644ZM39.6444 38.4L48.9956 40.5689C49.1201 40.5999 49.2512 40.5928 49.3717 40.5484C49.4921 40.5041 49.5965 40.4245 49.6711 40.32C49.7264 40.2372 49.7616 40.1427 49.7739 40.044C49.7863 39.9452 49.7754 39.8449 49.7422 39.7511L46.9333 30.4711L44.1244 21.1555C44.0677 21.0001 43.9531 20.8727 43.8044 20.8C43.6847 20.7364 43.5479 20.7125 43.4137 20.7316C43.2795 20.7508 43.1549 20.8121 43.0578 20.9067L36.48 28.0178L29.9378 35.1289C29.8593 35.213 29.8049 35.3168 29.7804 35.4293C29.7559 35.5417 29.7622 35.6587 29.7986 35.7679C29.835 35.8771 29.9001 35.9744 29.9872 36.0497C30.0743 36.1249 30.18 36.1753 30.2933 36.1956L39.6444 38.4ZM21.7956 26.8444L23.5733 29.8311L25.3867 32.8178C25.4578 32.8889 25.4933 32.9955 25.4933 33.1378C25.4918 33.2651 25.4542 33.3895 25.385 33.4964C25.3158 33.6034 25.2178 33.6886 25.1022 33.7422C25.025 33.7826 24.9403 33.8068 24.8533 33.8133L21.4044 33.8844L17.9911 33.9556C17.8763 33.9582 17.7629 33.9298 17.6628 33.8735C17.5627 33.8172 17.4796 33.735 17.4222 33.6356C17.3693 33.5372 17.3416 33.4272 17.3416 33.3155C17.3416 33.2039 17.3693 33.0939 17.4222 32.9955L19.0578 29.9378L20.6933 26.88C20.7367 26.7884 20.8012 26.7083 20.8816 26.6465C20.962 26.5847 21.0559 26.5429 21.1556 26.5244C21.2858 26.5111 21.417 26.5381 21.5314 26.6017C21.6459 26.6652 21.7381 26.7624 21.7956 26.88V26.8444ZM20.8711 47.9644C20.9513 47.9322 21.0242 47.8841 21.0853 47.823C21.1464 47.7619 21.1945 47.6891 21.2267 47.6089L23.6089 42.8444L25.9911 38.08C26.035 37.9916 26.0578 37.8942 26.0578 37.7956C26.0578 37.6969 26.035 37.5995 25.9911 37.5111C25.9359 37.3994 25.8493 37.3063 25.7419 37.2432C25.6346 37.18 25.5111 37.1496 25.3867 37.1556L20.0889 37.44L14.8267 37.76C14.7273 37.7654 14.6306 37.794 14.5441 37.8434C14.4577 37.8927 14.384 37.9616 14.3289 38.0444C14.2586 38.1497 14.221 38.2734 14.221 38.4C14.221 38.5266 14.2586 38.6503 14.3289 38.7555L17.2444 43.2355L20.1244 47.7155L20.3733 47.9289C20.5511 48 20.7289 48.0355 20.8711 47.9644Z" fill="white"/>
</g>
</g>
<defs>
<linearGradient id="paint0_linear_365_32678" x1="4.76445" y1="49.1022" x2="58.9156" y2="15.36" gradientUnits="userSpaceOnUse">
<stop stop-color="#E96524"/>
<stop offset="0.52" stop-color="#CC1E66"/>
<stop offset="1" stop-color="#9B3686"/>
</linearGradient>
<clipPath id="clip0_365_32678">
<rect width="64" height="64" fill="white"/>
</clipPath>
</defs>
</svg>
