<svg width="512" height="512" viewBox="0 0 64 64" fill="none" xmlns="http://www.w3.org/2000/svg">
<g clip-path="url(#clip0_365_32570)">
<mask id="mask0_365_32570" style="mask-type:luminance" maskUnits="userSpaceOnUse" x="0" y="0" width="64" height="64">
<path d="M64 0H0V64H64V0Z" fill="white"/>
</mask>
<g mask="url(#mask0_365_32570)">
<path d="M0 0H64V64H0V0Z" fill="#1E52A0"/>
<path d="M11.4857 25.1429L18.2857 37.7143H15.3371L11.4857 30.4914L8.74284 35.4286H13.1428L11.8971 37.7143H4.57141L11.4857 25.1429ZM14.8571 25.1429H17.5428L20.5714 30.4686L23.6571 25.1429H26.2857L21.7143 33.2343V37.7143H19.4286V33.2343L14.8571 25.1429ZM55.0743 27.4286L49.7371 36.6857L43.4857 25.1429L36.5714 37.7143H43.8971L45.1543 35.4286H40.7543L43.4971 30.4914L47.3257 37.7143H57.6571L59.2571 35.4286H53.52L59.4286 25.1429H50.7314L49.1428 27.4286H55.0743ZM35.2686 32.5714C35.0131 33.4299 34.4769 34.1779 33.7458 34.6954C33.0148 35.2129 32.1312 35.4701 31.2366 35.4258C30.3419 35.3814 29.4881 35.0381 28.8118 34.4507C28.1356 33.8634 27.676 33.0661 27.5067 32.1865C27.3375 31.3069 27.4683 30.396 27.8784 29.5997C28.2884 28.8033 28.9538 28.1676 29.7681 27.7944C30.5823 27.4212 31.4983 27.3321 32.3692 27.5414C33.2401 27.7506 34.0156 28.2462 34.5714 28.9486L35.7943 26.88C34.7145 25.8424 33.2998 25.2243 31.8048 25.1371C30.3098 25.05 28.8328 25.4994 27.6398 26.4045C26.4467 27.3096 25.616 28.6109 25.2973 30.0741C24.9785 31.5373 25.1925 33.0662 25.9009 34.3856C26.6093 35.705 27.7655 36.7281 29.1612 37.2707C30.557 37.8134 32.1006 37.8399 33.5141 37.3455C34.9277 36.8511 36.1183 35.8682 36.8715 34.5739C37.6248 33.2797 37.8912 31.759 37.6228 30.2857H31.52L30.2057 32.5714H35.2686Z" fill="white"/>
</g>
</g>
<defs>
<clipPath id="clip0_365_32570">
<rect width="64" height="64" fill="white"/>
</clipPath>
</defs>
</svg>
