<svg width="512" height="512" viewBox="0 0 64 64" fill="none" xmlns="http://www.w3.org/2000/svg">
<g clip-path="url(#clip0_365_32663)">
<mask id="mask0_365_32663" style="mask-type:luminance" maskUnits="userSpaceOnUse" x="0" y="0" width="64" height="64">
<path d="M64 0H0V64H64V0Z" fill="white"/>
</mask>
<g mask="url(#mask0_365_32663)">
<path d="M0 0H64V64H0V0Z" fill="url(#paint0_linear_365_32663)"/>
<path d="M36.5943 28.9143L34.6514 30.6857C34.182 30.178 33.5438 29.8585 32.8561 29.787C32.1683 29.7155 31.4781 29.8968 30.9143 30.2972C28.6971 31.92 30 35.52 32.7314 35.3715C33.76 35.3143 34.8571 34.8572 35.12 33.7143H33.1428V32H38C38 35.3486 36.0228 37.9772 32.7314 37.9772C31.668 38.0114 30.6175 37.7356 29.7081 37.1835C28.7986 36.6313 28.0693 35.8266 27.609 34.8673C27.1488 33.908 26.9774 32.8356 27.1158 31.7807C27.2542 30.7257 27.6964 29.7338 28.3886 28.9257C30.4 26.7086 34.6057 26.4572 36.5943 28.9257V28.9143ZM4.57141 37.7143V27.44H9.14284C15.4286 27.4286 15.4286 37.7143 9.14284 37.7143H4.57141ZM6.85713 35.4286H9.14284C12.5714 35.4286 12.2857 29.7143 9.14284 29.7143H6.85713V35.4286ZM58.9257 28.2629L57.4971 30.3772C56.8583 29.9422 56.1185 29.6786 55.3486 29.6115C54.8914 29.5657 53.7828 29.4629 53.7486 30.1714C53.7424 30.2695 53.768 30.3668 53.8215 30.4492C53.875 30.5315 53.9536 30.5944 54.0457 30.6286C55.3257 31.1886 56.6857 31.5429 57.9314 32.2057C59.5086 33.0629 59.8743 34.9829 58.7314 36.3772C58.1307 37.0869 57.3171 37.5839 56.4114 37.7943C54.4343 38.32 52.64 37.8972 50.9714 36.7772C50.6628 36.5715 50.3771 36.32 50.0686 36.08L51.7143 34.3086C52.7086 34.9257 53.6457 35.4286 54.8343 35.5543C55.2457 35.5886 55.6571 35.5543 56.0343 35.4057C56.4686 35.2229 56.7428 34.6514 56.24 34.3429C54.7771 33.44 52.9257 33.5886 51.5543 32.4457C51.254 32.1886 51.0124 31.8701 50.8456 31.5116C50.6789 31.1532 50.5909 30.7631 50.5877 30.3678C50.5844 29.9725 50.666 29.5811 50.8268 29.22C50.9876 28.8588 51.224 28.5364 51.52 28.2743C53.4286 26.56 56.9143 26.8 58.9371 28.2743L58.9257 28.2629ZM38.8571 27.4286H41.1428V32.8343C41.1657 36.6514 46.8571 36.6514 46.8571 32.8457V27.4286H49.1428C49.1428 29.2 49.1543 31.1657 49.1428 32.9372C49.0628 39.84 38.8571 39.2572 38.8571 32.8229V27.4286ZM25.7828 34.1943C21.7143 29.7143 17.7143 30.8572 15.04 34.2629C14.9943 34.0229 14.9257 33.7829 14.8914 33.5429C16.2971 32 20.5714 28 25.9428 33.4857L25.7828 34.2057V34.1943Z" fill="white"/>
<path d="M16.0344 36.1029L15.7144 35.5429C16.5715 30.8572 23.4629 30.3657 25.1429 35.0857L24.8115 36C23.6001 30.7657 16.5715 31.4286 16.0344 36.1029Z" fill="white"/>
<path d="M14.8228 32.6857L14.8342 32.0343C15.5023 31.2155 16.3417 30.553 17.2933 30.0934C18.2449 29.6338 19.2857 29.3883 20.3424 29.3742C21.3991 29.36 22.446 29.5775 23.4096 30.0115C24.3732 30.4454 25.2301 31.0851 25.9199 31.8857L26.0342 32.64C25.3693 31.7877 24.5182 31.0989 23.5462 30.6262C22.5741 30.1535 21.5067 29.9095 20.4258 29.9128C19.3449 29.9161 18.279 30.1666 17.3098 30.6453C16.3407 31.1239 15.4938 31.818 14.8342 32.6743L14.8228 32.6857Z" fill="white"/>
<path d="M25.8172 30.9143C22.8801 28.2514 17.7601 28.1714 14.9829 31.1314C15.1658 30.6286 15.2572 30.1486 15.7029 29.8171C17.0447 28.8787 18.6383 28.3668 20.2756 28.3484C21.9129 28.3301 23.5176 28.8061 24.8801 29.7143C25.4286 30.08 25.5658 30.32 25.8172 30.9143ZM17.1772 37.1657L16.8001 36.7771C17.7143 32 23.4286 32.5714 24.0915 36.6057L23.6572 37.0971C22.8801 33.3257 18.2858 32.5714 17.1772 37.1657ZM34.2858 26.2857H30.8572V24H34.2858V26.2857Z" fill="white"/>
<path d="M22.7999 37.6114C21.7142 34.2857 18.8571 34.2857 18.0914 37.68L17.5885 37.3371C18.8571 33.1428 22.5142 34.2857 23.2342 37.2571L22.7999 37.6114ZM24.3656 28.5828C21.6228 27.0057 18.9485 27.1428 16.2856 28.8114C16.79 28.2476 17.404 27.7925 18.0902 27.4739C18.7764 27.1554 19.5203 26.98 20.2765 26.9586C21.0327 26.9373 21.7853 27.0702 22.4884 27.3495C23.1914 27.6288 23.8302 28.0484 24.3656 28.5828ZM54.8571 41.1428C54.7071 41.1444 54.5583 41.1158 54.4196 41.0588C54.2809 41.0018 54.155 40.9174 54.0495 40.8109C53.944 40.7043 53.8609 40.5776 53.8053 40.4383C53.7497 40.299 53.7226 40.1499 53.7256 40C53.7256 39.6969 53.8461 39.4062 54.0604 39.1918C54.2747 38.9775 54.5654 38.8571 54.8685 38.8571C55.1716 38.8571 55.4623 38.9775 55.6766 39.1918C55.891 39.4062 56.0114 39.6969 56.0114 40C56.0129 40.1505 55.9844 40.2998 55.9275 40.4391C55.8706 40.5785 55.7865 40.7051 55.68 40.8115C55.5736 40.9179 55.447 41.0021 55.3077 41.0589C55.1683 41.1158 55.019 41.1444 54.8685 41.1428H54.8571Z" fill="white"/>
<path d="M21.4629 38.0571C21.4629 38.0571 21.2915 36.3428 20.3886 36.3428C19.4743 36.3428 19.3143 38.0571 19.3143 38.0571L18.8801 37.9543C18.8572 36 21.1429 34.2857 22.0229 37.84L21.4629 38.0686V38.0571Z" fill="white"/>
</g>
</g>
<defs>
<linearGradient id="paint0_linear_365_32663" x1="11.9086" y1="11.0971" x2="77.8857" y2="86.88" gradientUnits="userSpaceOnUse">
<stop stop-color="#1A1E21"/>
<stop offset="1" stop-color="#06060A"/>
</linearGradient>
<clipPath id="clip0_365_32663">
<rect width="64" height="64" fill="white"/>
</clipPath>
</defs>
</svg>
