<svg width="512" height="512" viewBox="0 0 64 64" fill="none" xmlns="http://www.w3.org/2000/svg">
<g clip-path="url(#clip0_365_32754)">
<mask id="mask0_365_32754" style="mask-type:luminance" maskUnits="userSpaceOnUse" x="0" y="0" width="64" height="64">
<path d="M64 0H0V64H64V0Z" fill="white"/>
</mask>
<g mask="url(#mask0_365_32754)">
<path d="M0 0H64V64H0V0Z" fill="#F0F3FA"/>
<path d="M32 49.8133C27.2854 49.802 22.7674 47.9229 19.4354 44.5876C16.1033 41.2522 14.2288 36.7323 14.2222 32.0177C14.2222 22.1902 22.2116 14.2222 32.0711 14.2222C36.1772 14.2186 40.1589 15.6315 43.3444 18.2224C46.53 20.8133 48.7243 24.4236 49.5573 28.4444H45.7742C44.9059 25.0944 42.8461 22.1758 39.9807 20.2352C37.1153 18.2946 33.6408 17.4651 30.2077 17.9019C26.7747 18.3388 23.6187 20.0121 21.3306 22.6085C19.0426 25.2049 17.7794 28.5464 17.7778 32.0071C17.7768 33.8754 18.144 35.7255 18.8583 37.4519C19.5727 39.1782 20.6201 40.7469 21.9409 42.0683C23.2616 43.3897 24.8298 44.4379 26.5557 45.1531C28.2817 45.8683 30.1317 46.2364 32 46.2364V49.8133Z" fill="#656366"/>
<path d="M35.5627 32H49.7778V35.5556H35.5627V32Z" fill="#E60D2D"/>
<path d="M35.5627 39.1111H49.7778V42.6666H35.5627V39.1111Z" fill="#338B25"/>
<path d="M35.5627 46.2222H49.7778V49.7777H35.5627V46.2222Z" fill="#0077B8"/>
</g>
</g>
<defs>
<clipPath id="clip0_365_32754">
<rect width="64" height="64" fill="white"/>
</clipPath>
</defs>
</svg>
