<svg width="512" height="512" viewBox="0 0 64 64" fill="none" xmlns="http://www.w3.org/2000/svg">
<g clip-path="url(#clip0_365_32436)">
<mask id="mask0_365_32436" style="mask-type:luminance" maskUnits="userSpaceOnUse" x="0" y="0" width="64" height="64">
<path d="M64 0H0V64H64V0Z" fill="white"/>
</mask>
<g mask="url(#mask0_365_32436)">
<path d="M0 0H64V64H0V0Z" fill="#F0F3FA"/>
<path d="M31.8971 23.4285C32.2723 23.421 32.6453 23.4876 32.9949 23.6243C33.3444 23.7609 33.6636 23.9651 33.9342 24.2251C34.2048 24.4851 34.4215 24.7957 34.5721 25.1395C34.7226 25.4833 34.8039 25.8533 34.8114 26.2286C34.8189 26.6038 34.7524 26.9768 34.6158 27.3263C34.4791 27.6758 34.275 27.9951 34.015 28.2657C33.755 28.5363 33.4442 28.753 33.1004 28.9035C32.7567 29.054 32.3866 29.1353 32.0114 29.1428C31.2537 29.158 30.5209 28.8715 29.9744 28.3464C29.4278 27.8213 29.1123 27.1006 29.0971 26.3428C29.082 25.5852 29.3685 24.8523 29.8936 24.3058C30.4187 23.7593 31.1394 23.4437 31.8971 23.4285Z" fill="#E41B13"/>
<path d="M14.88 42.6285C14.9714 42.7999 23.5657 46.3085 33.8971 44.8914C47.3142 43.0285 51.0857 37.4857 51.2 33.1428C51.3142 28.1828 44.0457 22.5599 31.9771 22.7771C20.48 22.9714 13.1085 28.4685 13.2 33.6799C13.2571 37.0514 16.7657 40.9257 24.5485 41.3828C27.5314 41.5542 35.1542 40.8457 40.7771 39.3028C37.0282 41.0891 33.014 42.2548 28.8914 42.7542C18.6857 44.1714 7.50853 41.0514 7.38282 33.8285C7.24568 26.3999 18.6285 20.2971 31.9885 20.0685C46.56 19.8285 56.8571 26.2857 56.9828 33.0285C57.0971 39.6114 46.96 46.1714 30.9257 46.4457C20.9142 46.6171 14.9714 42.7428 14.88 42.6171V42.6285ZM31.7371 13.7142C32.1123 13.7082 32.485 13.7762 32.834 13.9142C33.1829 14.0523 33.5012 14.2577 33.7708 14.5187C34.0404 14.7798 34.2558 15.0914 34.405 15.4358C34.5541 15.7801 34.634 16.1505 34.64 16.5257C34.646 16.9009 34.578 17.2736 34.44 17.6225C34.3019 17.9715 34.0965 18.2898 33.8354 18.5594C33.5744 18.8289 33.2628 19.0444 32.9184 19.1935C32.5741 19.3427 32.2037 19.4225 31.8285 19.4285C31.0708 19.4406 30.3392 19.1513 29.7948 18.624C29.2504 18.0968 28.9378 17.3749 28.9257 16.6171C28.9135 15.8593 29.2029 15.1278 29.7302 14.5834C30.2574 14.039 30.9793 13.7264 31.7371 13.7142Z" fill="#E41B13"/>
<path d="M18.2858 36.5714V31.9999H19.4286V36.5714H18.2858ZM18.2858 30.8571V29.7142H19.4286V30.8571H18.2858ZM40.0001 36.5714V31.9999H41.1429V36.5714H40.0001ZM40.0001 30.8571V29.7142H41.1429V30.8571H40.0001ZM20.4915 35.9428L21.2001 35.2799C21.4286 35.7028 21.7486 35.9085 22.1829 35.8971C22.5829 35.8971 22.8229 35.7028 22.8229 35.4285C22.8283 35.3656 22.8162 35.3025 22.788 35.246C22.7597 35.1895 22.7165 35.142 22.6629 35.1085C22.4858 35.0096 22.2922 34.9437 22.0915 34.9142C21.6001 34.8114 21.2572 34.6514 21.0515 34.4342C20.4801 33.8285 20.4801 32.7771 21.0515 32.1828C21.3601 31.8857 21.7486 31.7257 22.2401 31.7142C22.8686 31.7028 23.3715 31.9428 23.7258 32.4685L23.0629 33.1199C22.8229 32.8114 22.5486 32.6628 22.2629 32.6628C21.9201 32.6628 21.6915 32.8571 21.6915 33.0857C21.6915 33.3485 21.8629 33.4514 22.4001 33.5771C22.9258 33.6914 23.2915 33.8628 23.4972 34.0685C23.7715 34.3314 23.9201 34.6971 23.9201 35.1657C23.9429 36.1371 23.2572 36.8342 22.2858 36.8571C21.4172 36.8799 20.8229 36.5714 20.4915 35.9428ZM25.1429 36.5714V31.9999H26.5829C27.8401 31.9771 28.7429 33.0057 28.7543 34.2857C28.7886 35.5885 27.9086 36.5485 26.6515 36.5714H25.1429ZM26.2858 33.1428V35.4285C27.1658 35.4057 27.5772 35.1199 27.5543 34.2857C27.5543 33.7142 27.2458 33.1428 26.5829 33.1428H26.2858ZM29.7143 36.5714V31.9999H33.1429V33.1428H30.8572V33.7142H32.0001V34.8571H30.8572V35.4285H33.1429V36.5714H29.7143ZM34.2858 36.5714V31.9999H35.9886L36.5715 34.8571L37.1429 31.9999H38.8572V36.5714H37.7143V33.1428L37.1429 36.5714H36.0001L35.4286 33.1428V36.5714H34.2858ZM44.6286 31.9999H42.2858V36.5714H43.4286V34.8571H44.0686L44.7886 36.5714H46.0229L45.2458 34.7199C45.5396 34.581 45.7773 34.346 45.9195 34.0537C46.0618 33.7614 46.1001 33.4294 46.0282 33.1124C45.9563 32.7954 45.7784 32.5124 45.5239 32.3102C45.2695 32.1079 44.9537 31.9985 44.6286 31.9999ZM43.4286 33.7142V33.1428H44.6286C44.7044 33.1428 44.7771 33.1729 44.8307 33.2265C44.8842 33.2801 44.9143 33.3527 44.9143 33.4285C44.9143 33.5043 44.8842 33.577 44.8307 33.6305C44.7771 33.6841 44.7044 33.7142 44.6286 33.7142H43.4286Z" fill="#231F20"/>
</g>
</g>
<defs>
<clipPath id="clip0_365_32436">
<rect width="64" height="64" fill="white"/>
</clipPath>
</defs>
</svg>
