<svg width="512" height="512" viewBox="0 0 64 64" fill="none" xmlns="http://www.w3.org/2000/svg">
<g clip-path="url(#clip0_365_32408)">
<mask id="mask0_365_32408" style="mask-type:luminance" maskUnits="userSpaceOnUse" x="0" y="0" width="64" height="64">
<path d="M64 0H0V64H64V0Z" fill="white"/>
</mask>
<g mask="url(#mask0_365_32408)">
<path d="M0 0H64V64H0V0Z" fill="#F0F3FA"/>
<path d="M15.7372 26.2859H18.2172L14.6286 31.223L18.2858 36.5716H15.6915L12.5715 31.5316V36.5716H10.2858V26.2859H12.5715V31.1087L15.7372 26.2859ZM22.8572 35.543H22.8458C22.1829 36.343 21.6001 36.5716 20.7772 36.5716C19.6572 36.5716 18.2858 36.0687 18.2858 34.583C18.2858 33.8973 18.5372 32.7316 21.3143 32.583L22.8572 32.4802V32.183C22.8572 31.4173 22.6172 31.0402 21.7486 31.0402C20.9258 31.0402 20.6172 31.4173 20.5715 32.0002H18.4915C18.5601 30.9944 19.3372 29.7144 21.8172 29.7144C23.5772 29.7144 25.1429 30.5144 25.1429 32.0002V36.5716H22.8572V35.543ZM22.8572 33.5659L21.4858 33.703C20.5829 33.783 20.2743 34.0344 20.2743 34.503C20.2743 35.0744 20.8572 35.2573 21.5315 35.2573C22.1372 35.2573 22.8572 34.9373 22.8572 34.1602V33.5659ZM26.2858 26.2859H28.5715V36.5716H26.2858V26.2859ZM31.6686 33.7144C31.7486 34.4687 32.2401 35.1773 33.2343 35.1773C33.8058 35.1773 34.3201 34.9144 34.5715 34.4116L36.4001 34.5487C35.9429 35.8859 34.7201 36.5716 33.1429 36.5716C31.1315 36.5716 29.7143 35.223 29.7143 33.1544C29.7143 31.063 31.1201 29.7144 33.1429 29.7144C35.1543 29.7144 36.5715 31.063 36.5715 33.1544V33.7144H31.6686ZM34.6972 32.503C34.6286 31.8744 34.1372 31.1087 33.2343 31.1087C32.2515 31.1087 31.7715 31.7602 31.6686 32.503H34.6972ZM40.0686 33.1316H40.0001V36.5716H37.7143V26.2859H40.0001V32.6173H40.0686L42.0572 29.7144H44.4572L41.9886 32.7087L44.5715 36.5716H42.0115L40.0686 33.1316ZM46.8572 26.2859C47.4401 26.2859 48.0001 26.8116 48.0001 27.4287C48.0001 28.0002 47.4743 28.5716 46.8572 28.5716C46.2172 28.5716 45.7143 27.9544 45.7143 27.4287C45.7143 26.8802 46.2058 26.2859 46.8572 26.2859ZM45.7143 29.7144H48.0001V36.5716H45.7143V29.7144ZM56.3543 31.223C55.6115 31.223 55.4286 31.8859 55.4286 32.4116V36.5716H53.1429V32.4573C53.1429 31.7716 53.1658 31.2344 52.3543 31.2344C51.5543 31.2344 51.4286 31.8744 51.4286 32.5259V36.5716H49.1429V29.7144H51.4286V30.7659C52.0458 29.8744 52.5029 29.7144 53.2915 29.7144C53.7486 29.7144 54.6629 29.8287 55.1543 30.743C55.84 29.863 56.6172 29.7144 57.1886 29.7144C58.3772 29.7144 59.4286 30.3773 59.4286 31.7716V36.5716H57.1429V32.263C57.1429 31.783 56.9601 31.223 56.3543 31.223Z" fill="black"/>
<path d="M9.14284 26.2859H8.22855V26.8573H7.31427V26.2859H6.39998V26.8573H5.4857V26.2859H4.57141V30.8573H9.14284V26.2859Z" fill="#EC4632"/>
</g>
</g>
<defs>
<clipPath id="clip0_365_32408">
<rect width="64" height="64" fill="white"/>
</clipPath>
</defs>
</svg>
