<svg width="512" height="512" viewBox="0 0 64 64" fill="none" xmlns="http://www.w3.org/2000/svg">
<g clip-path="url(#clip0_365_32376)">
<mask id="mask0_365_32376" style="mask-type:luminance" maskUnits="userSpaceOnUse" x="0" y="0" width="64" height="64">
<path d="M64 0H0V64H64V0Z" fill="white"/>
</mask>
<g mask="url(#mask0_365_32376)">
<path d="M0 0H64V64H0V0Z" fill="#F0F3FA"/>
<path d="M30.8571 25.1772C30.8571 25.4629 30.9257 25.9886 31.0057 26.2857C28.8571 24.6172 24.8685 22.6286 21.2114 22.6286C19.8285 22.6286 18.2742 23.1772 17.1428 23.84C17.1428 22.0114 17.6685 20.0229 18.8571 18.6743C19.6862 17.855 20.8001 17.3881 21.9657 17.3714C22.2514 15.8286 24.4228 15.3143 25.68 15.3143C26.0457 15.3029 26.64 15.3714 27.0057 15.4286C26.5634 14.9016 26.31 14.2419 26.2857 13.5543C26.2857 12.6057 26.6285 11.4286 26.6285 11.4286C27.6457 12.5372 30.2857 14.3429 32.1714 15.6457L33.2342 16.3772C34.6845 17.4061 36.0147 18.5945 37.2 19.92L37.2342 19.9543C37.36 20.1029 37.7142 20.5143 37.7142 20.8114C37.7142 20.9257 37.6114 21.2343 37.3828 21.0972C36.8648 20.771 36.269 20.5895 35.6571 20.5714C35.0349 20.5403 34.4129 20.6366 33.8293 20.8545C33.2457 21.0724 32.7128 21.4073 32.2633 21.8386C31.8138 22.2699 31.4572 22.7885 31.2154 23.3626C30.9736 23.9367 30.8516 24.5542 30.8571 25.1772ZM37.7028 17.7714C38.0342 18.0914 38.3542 18.4572 38.6857 18.8229C39.9314 20.2286 41.2457 21.7143 43.4285 21.7143C41.9428 20.8114 41.0857 19.1657 40.24 17.52C38.9714 15.0514 37.6914 12.5714 34.24 12.5714C33.3142 12.5714 32.3885 12.8343 32 13.5772C34.2285 14.6057 36.0228 16.1257 37.7028 17.7714ZM52.5714 27.7714C51.28 26.9029 49.3942 26.48 47.5428 26.0572L47.1542 25.9772C46.24 24.4229 43.44 24.08 40.8114 23.76C40.1714 23.68 39.5314 23.6 38.9371 23.5086C38.7085 23.4629 38.4571 23.3372 38.2171 23.2114C37.9885 23.0972 37.76 22.9829 37.5542 22.9486C37.2114 22.88 36.88 22.8572 36.5714 22.8572C34.2171 22.8572 33.1428 24.7314 33.1428 26.4C33.1428 27.9657 34.2514 29.4172 36.7885 29.0972C37.04 29.0286 37.1885 28.8457 37.3257 28.6629C37.5542 28.3543 37.7942 28.0457 38.56 28.3086C40 28.7429 40 29.6572 40 30.7429C40 31.5772 39.8285 32.5257 39.6685 33.4629C39.5085 34.3543 39.36 35.2229 39.36 35.9543C39.36 37.7029 43.5885 41.1314 46.6057 41.1314C47.5771 41.1314 48.4571 40.7886 49.1428 39.9772C49.1428 39.6572 49.0628 39.3829 48.9714 39.0972C48.795 38.6542 48.7552 38.1686 48.8571 37.7029C48.4 37.7029 48.1942 37.9543 47.9771 38.2286C47.7257 38.5257 47.4514 38.8457 46.8228 38.8457C45.0857 38.8457 44.5714 36.7886 44.5714 35.0972C44.5714 33.0057 46.0342 30.8457 49.1657 30.8457C49.6571 30.8229 49.7942 31.1429 49.9314 31.4629C50.0114 31.6686 50.0914 31.8743 50.2742 31.9886L50.96 31.28C51.7828 30.4572 52.5714 29.68 52.5714 27.76V27.7714ZM44.5714 27.3257C44.2942 27.4115 44.0038 27.4464 43.7142 27.4286C43.0857 27.4286 42.4571 27.2 42.2857 26.7429C42.4 26.4572 42.7885 26.2857 43.2114 26.2857C43.8514 26.2857 44.5714 26.72 44.5714 27.3257ZM36.9257 33.36C36.48 33.6914 35.8742 33.84 34.8914 33.7829C31.9657 33.6686 29.2685 32.8914 26.6285 32.1486C22.96 31.1086 19.4057 30.0914 15.5428 30.8914C15.5428 27.3486 17.8628 25.1429 20.7314 25.1429C22.8685 25.1429 25.6 26.6057 28.2742 28.0457C30.4457 29.2 32.56 30.3429 34.32 30.6743C35.8171 30.8572 36.6857 30.8572 37.7142 30.8572C37.7142 31.7829 37.68 32.8686 36.9257 33.3714V33.36ZM36.5714 35.9314C34.3771 36.2172 31.3942 35.44 28.32 34.6286C25.5542 33.8972 22.6971 33.1429 20.2857 33.1429C18.8228 33.1429 17.52 33.5086 16.48 34.3429C15.9708 34.752 15.5604 35.2707 15.2794 35.8603C14.9984 36.45 14.8541 37.0954 14.8571 37.7486C14.8571 38.4572 15.2114 41.1429 16.0342 41.1429C16.4342 41.1429 16.7314 40.88 17.0171 40.64L17.3828 40.3429C20.3542 38.4914 24.2971 37.7143 28.8114 37.7143H32.5371C34.32 37.7143 35.9771 37.3829 36.5714 35.9314ZM41.2114 43.3829L41.0285 42.2857C40.8342 42.7657 40.4685 43.2343 40.1142 43.7029C39.4971 44.48 38.8571 45.3029 38.8571 46.3314C38.8571 48 41.0285 48 42.2857 48C41.7485 46.5829 41.4857 44.9829 41.2114 43.3829ZM22.8571 45.12C22.8571 41.3486 27.0285 40.5943 31.1314 40.2857L31.4971 40.2629C34.0114 40.0686 37.3714 39.8057 38.4685 37.7143C38.8571 38.8914 38.8571 39.7714 38.8571 40.64C38.8571 42.1943 37.4857 44.5029 36.88 45.5314L36.6628 45.8972C35.8857 47.2343 35.2914 48.7543 34.9257 50.2857C33.3257 48.3429 33.2114 46.5943 34.2057 45.12C32.4342 46.8343 30.6857 48.56 29.7714 50.2857C29.5885 50.0572 29.3942 49.8514 29.2 49.6457C28.5142 48.88 27.8857 48.1714 27.6914 47.1772C27.5886 46.7783 27.5827 46.3607 27.6741 45.9591C27.7656 45.5575 27.9518 45.1836 28.2171 44.8686C26.5028 45.7143 24.8457 46.5829 23.3028 47.7714C23.0193 46.9157 22.869 46.0214 22.8571 45.12Z" fill="#002169"/>
</g>
</g>
<defs>
<clipPath id="clip0_365_32376">
<rect width="64" height="64" fill="white"/>
</clipPath>
</defs>
</svg>
