<svg width="512" height="512" viewBox="0 0 64 64" fill="none" xmlns="http://www.w3.org/2000/svg">
<g clip-path="url(#clip0_365_32487)">
<mask id="mask0_365_32487" style="mask-type:luminance" maskUnits="userSpaceOnUse" x="0" y="0" width="64" height="64">
<path d="M64 0H0V64H64V0Z" fill="white"/>
</mask>
<g mask="url(#mask0_365_32487)">
<path d="M0 0H64V64H0V0Z" fill="url(#paint0_linear_365_32487)"/>
<path d="M13.7166 28.688C13.72 31.3338 13.7303 34.1452 13.7166 36.7898C13.7006 39.864 11.7828 41.1429 9.05941 41.1429C6.33598 41.1429 4.57141 39.2686 4.57141 36.7886V28.3943C4.57141 25.7006 6.25141 23.9989 9.14284 24C12.0343 24.0012 13.7097 25.6835 13.7166 28.688ZM30.8571 31.2195V37.3749C30.8514 39.768 28.9634 40.7452 26.9074 41.1429H25.9051C23.7303 40.8606 21.7143 39.5886 21.7143 37.2938V31.1383C21.7166 28.8275 23.7566 27.5383 25.9874 27.4286C28.5154 27.3063 30.8468 28.5429 30.8571 31.2195ZM47.3828 27.4286C49.0651 27.5258 50.7108 27.88 51.2114 29.6686C51.3737 30.2458 51.4217 30.8378 51.4217 31.432L51.4228 41.1429H48C48 40.9258 48.0286 39.8538 48 39.8926C47.3166 40.8378 46.2206 41.1429 45.12 41.1429C44.1646 40.9669 43.3406 40.6423 42.9371 39.6652C42.5943 38.8309 42.5737 37.8823 42.5828 36.992C42.6126 34.1623 45.0388 33.5349 47.0617 32.3886C47.7108 32.0206 48.0537 31.44 48 30.704C47.9691 30.2869 47.7886 29.7886 47.3097 29.7143C46.7897 29.6343 46.2343 29.9383 46.2034 30.528C46.1828 30.9395 46.1874 31.5875 46.1874 32H42.8388C42.8388 32 42.8228 30.7703 42.848 30.32C42.9737 28.0983 45.4788 27.3189 47.3828 27.4286ZM19.4286 25.1429V27.4286H20.5714V30.8572H19.4286V36.736C19.4286 37.4218 19.984 37.7143 20.5714 37.7143V41.1429C20.5714 41.1635 20.5737 41.1223 20.5714 41.1429H18.2971C16.9451 41.1429 16 40.24 16 38.7212V30.8572H14.8571V27.4286H16V25.1429H19.4286ZM37.7143 27.4286H41.1428C41.0983 27.4252 41.1691 27.4286 41.1428 27.4286L39.0537 33.3429L41.1428 41.1429H37.7097L35.6023 33.4835L37.7143 27.4286C37.7348 27.3646 37.6457 27.4286 37.7143 27.4286ZM35.4286 24C35.4286 23.9029 35.5234 24 35.4286 24C35.4263 29.4572 35.4286 35.6858 35.4286 41.1429H32V24C31.9017 24 32 23.8983 32 24H35.4286ZM59.4286 27.4286V32H58.3337C57.3703 32.0618 57.1474 32.7475 57.1428 33.5783V41.1429H53.7143V27.4286H57.1428V29.9269C57.1291 29.9578 57.1577 29.8972 57.1428 29.9269C57.7326 28.5955 57.8697 27.4709 59.4286 27.4286C59.4594 27.4286 59.3977 27.4309 59.4286 27.4286ZM48 34.2035C47.3486 34.6766 46.3223 35.168 46.3166 36.0858C46.3131 36.6972 46.312 37.3086 46.3166 37.9189C46.32 38.2298 46.3748 38.632 46.6571 38.8138C47.4297 39.3098 48 38.44 48 37.7738C48 37.7738 48.0137 34.1943 48 34.2035ZM26.2857 29.7143C25.9957 29.7053 25.7137 29.8101 25.5001 30.0064C25.2865 30.2027 25.1582 30.4749 25.1428 30.7646C25.1406 33.0778 25.1406 35.3932 25.1428 37.7063C25.1428 38.0858 25.4457 38.8572 26.2857 38.8572C26.9017 38.8572 27.4263 38.4298 27.4286 37.7486C27.4366 35.4172 27.4343 33.0858 27.4286 30.7543C27.4286 30.0743 26.864 29.7143 26.2857 29.7143ZM7.99998 27.8229V37.2938C7.99998 38.0366 8.24341 38.8572 9.14284 38.8572C10.0423 38.8572 10.2811 38.0538 10.2857 37.2938V27.8229C10.2766 27.1223 9.99884 26.2858 9.14284 26.2858C8.28684 26.2858 8.00113 26.9978 7.99998 27.8229Z" fill="white"/>
</g>
</g>
<defs>
<linearGradient id="paint0_linear_365_32487" x1="11.9063" y1="11.0994" x2="77.8823" y2="86.8766" gradientUnits="userSpaceOnUse">
<stop stop-color="#1A1E21"/>
<stop offset="1" stop-color="#06060A"/>
</linearGradient>
<clipPath id="clip0_365_32487">
<rect width="64" height="64" fill="white"/>
</clipPath>
</defs>
</svg>
