<svg width="512" height="512" viewBox="0 0 65 65" fill="none" xmlns="http://www.w3.org/2000/svg">
<g clip-path="url(#clip0_1_2612)">
<path d="M0.5 0.5H64.5V64.5H0.5V0.5Z" fill="#FDC43E"/>
<path d="M23.9809 18.2778H46.3133C46.3133 18.2778 49.7444 19.3658 50.2138 23.4334C51.0138 30.3383 44.1196 35.9312 37.5667 36.0556H30.5089L26.7507 44.4574C26.7507 44.4574 28.3187 46.0681 26.7044 46.7223H15.0067C15.0067 46.7223 14.516 46.4663 14.8289 45.8369C15.1489 45.2112 24.7702 22.3241 24.7702 22.3241C24.7702 22.3241 25.8191 21.5952 24.8307 20.7312C24.8307 20.7312 23.6822 20.1303 23.6004 20.0414C23.1773 19.5969 23.9809 18.2778 23.9809 18.2778ZM31.9098 32.5001H32.7915C35.4369 32.5001 38.5978 30.0218 39.476 27.6325C40.4538 24.9658 40.3578 22.4094 37.2644 21.8334C36.6209 21.7125 36.212 21.8334 36.212 21.8334L31.9098 32.5001Z" fill="#DC2C2B"/>
</g>
<defs>
<clipPath id="clip0_1_2612">
<rect width="64" height="64" fill="white" transform="translate(0.5 0.5)"/>
</clipPath>
</defs>
</svg>
