<svg width="512" height="512" viewBox="0 0 64 64" fill="none" xmlns="http://www.w3.org/2000/svg">
<g clip-path="url(#clip0_365_32289)">
<mask id="mask0_365_32289" style="mask-type:luminance" maskUnits="userSpaceOnUse" x="0" y="0" width="64" height="64">
<path d="M64 0H0V64H64V0Z" fill="white"/>
</mask>
<g mask="url(#mask0_365_32289)">
<path d="M0 0H64V64H0V0Z" fill="#09357C"/>
<path d="M6.85718 25.1428H22.8572V41.1428H6.85718V25.1428ZM24 25.1428H40V41.1428H24V25.1428ZM41.1429 25.1428H57.1429V41.1428H41.1429V25.1428Z" fill="white"/>
<path d="M10.2858 28.5715V32.0001H10.7155C10.8595 29.7852 12.8126 28.9521 13.7143 29.0241V37.2275H12.5715V37.7144H17.1429V37.2275H16.0001V29.0241C18.2663 29.0778 18.9681 31.1727 18.9978 32.0001H19.4286V28.5715H10.2858Z" fill="#09357C"/>
<path d="M27.4285 37.7144V37.3018C27.745 37.3178 28.4365 37.1795 28.6673 36.4927C28.897 35.807 30.7988 30.927 31.7199 28.5715H32.3302L35.7062 37.3018H36.5713V37.7144H31.9999V37.3018H33.4673L32.6708 35.2218H29.7359L29.1245 36.8401C29.0673 36.9932 29.0639 37.3018 29.4982 37.3018H29.7142V37.7144H27.4285ZM31.425 32.0001L30.5256 34.2858H32.2696L31.425 32.0001Z" fill="#09357C"/>
<path d="M44.5715 29.0504V28.5715H49.143V29.0504H47.8401L50.0812 34.5852C50.7248 32.8474 51.361 31.1068 51.9898 29.3635C52.0778 29.0984 51.8035 29.0435 51.6561 29.0504H50.2858V28.5715H53.7144V29.0504H53.1144C52.8127 29.0504 52.6572 29.2595 52.6161 29.3635L49.495 37.7144H49.0492L45.3784 29.0504H44.5715Z" fill="#09357C"/>
</g>
</g>
<defs>
<clipPath id="clip0_365_32289">
<rect width="64" height="64" fill="white"/>
</clipPath>
</defs>
</svg>
