<svg width="512" height="512" viewBox="0 0 64 64" fill="none" xmlns="http://www.w3.org/2000/svg">
<g clip-path="url(#clip0_365_32345)">
<mask id="mask0_365_32345" style="mask-type:luminance" maskUnits="userSpaceOnUse" x="0" y="0" width="64" height="64">
<path d="M64 0H0V64H64V0Z" fill="white"/>
</mask>
<g mask="url(#mask0_365_32345)">
<path d="M0 0H64V64H0V0Z" fill="#08090D"/>
<path d="M23.1324 15.0648C32.0853 20.4622 34.7342 29.3831 34.7342 29.3831C35.4133 27.5768 35.3422 25.6284 35.3422 25.6284C35.1858 16.9991 32.2027 11.7191 28.256 10.7804C27.9533 10.7067 27.6431 10.6686 27.3316 10.6666C24.1209 10.6666 23.1324 15.0648 23.1324 15.0648ZM36.3449 25.664C36.2955 27.1574 36.3561 28.6524 36.5262 30.1368C42.3929 25.6924 44.0889 18.5315 44.0889 18.5315C43.7938 14.6666 41.2942 14.3964 41.2942 14.3964C41.2185 14.3904 41.1426 14.3868 41.0667 14.3857C36.6933 14.3857 36.4658 23.584 36.3449 25.664ZM24.0178 29.3475C31.0684 32.3448 34.4356 29.6213 34.4356 29.6213C30.7378 20.256 23.36 16.096 22.4889 15.68C15.1111 18.5706 17.0062 26.368 24.0178 29.3511V29.3475ZM36.7253 30.4284C36.7253 30.4284 41.1164 32.2417 44.6898 26.7662C48.2631 21.2906 44.2951 18.8124 44.2951 18.8124C44.2951 18.8124 42.8587 25.6746 36.7253 30.4284ZM37.2018 31.9857C37.9733 32.544 42.1511 35.8862 44.1493 44.0035C44.736 43.3777 48.48 39.0613 44.1849 34.7449C41.7671 32.3093 39.52 31.8791 38.2364 31.8791C37.7173 31.8791 37.3511 31.9502 37.2018 31.9857ZM22.7413 35.3137C15.5129 40.0071 17.6533 45.4471 22.7022 47.8933C22.7022 47.8933 30.016 43.7511 34.6418 32.5866C34.6418 32.5866 33.6747 32.1244 31.8827 32.1244C29.8418 32.1244 26.7236 32.7253 22.7413 35.3137ZM36.6293 35.7973C36.6436 37.9235 36.2418 47.3991 40.8533 47.3635C40.8533 47.3635 43.2569 47.7368 43.8044 44.2844C43.8044 44.2844 41.6356 35.4737 36.9493 32.2311C36.9493 32.2311 36.6116 33.6746 36.6293 35.7973ZM23.4382 48.6115C23.4382 48.6115 24.5653 53.3333 27.9253 53.3333C31.2818 53.3333 33.2231 48.8142 33.2231 48.8142C33.2231 48.8142 37.3511 40.0604 34.9369 32.8391C31.0542 43.5164 23.4382 48.6115 23.4382 48.6115Z" fill="url(#paint0_radial_365_32345)"/>
</g>
</g>
<defs>
<radialGradient id="paint0_radial_365_32345" cx="0" cy="0" r="1" gradientUnits="userSpaceOnUse" gradientTransform="translate(35.0009 30.9226) rotate(0.47589) scale(20.0771 37.7084)">
<stop stop-color="#70C82D"/>
<stop offset="0.719" stop-color="#00613B"/>
<stop offset="1" stop-color="#0A1322"/>
</radialGradient>
<clipPath id="clip0_365_32345">
<rect width="64" height="64" fill="white"/>
</clipPath>
</defs>
</svg>
