<svg width="512" height="512" viewBox="0 0 65 65" fill="none" xmlns="http://www.w3.org/2000/svg">
<g clip-path="url(#clip0_1_2704)">
<path d="M0.5 0.5H64.5V64.5H0.5V0.5Z" fill="#DCA438"/>
<path d="M44.3045 31.5969C51.9702 35.4014 51.9702 46.7223 35.5293 46.7223H14.7222L17.4493 29.6912C18.5445 23.3552 19.6431 18.2778 25.6733 18.2778H42.1142C51.3942 18.2778 53.6236 29.6912 44.308 31.5969H44.3045ZM28.1871 21.9863C25.492 21.3712 22.036 22.0396 20.4289 29.4067C19.2911 34.6476 17.9507 43.0103 17.9507 43.0103L18.3062 43.0138C20.5356 43.0281 24.3365 43.0529 27.0031 38.6832C27.2022 38.3525 29.9898 34.3027 33.0369 30.0254L33.1436 29.8761C35.764 26.1925 38.5551 22.2707 40.0413 21.9863C37.3462 21.3712 33.3569 23.1027 30.3418 27.5543C30.0645 27.9632 22.26 38.6832 22.26 38.6832L24.4147 27.5543C24.9551 24.4609 26.0325 22.6049 28.1836 21.9863H28.1871Z" fill="white"/>
</g>
<defs>
<clipPath id="clip0_1_2704">
<rect width="64" height="64" fill="white" transform="translate(0.5 0.5)"/>
</clipPath>
</defs>
</svg>
