<svg width="512" height="512" viewBox="0 0 65 65" fill="none" xmlns="http://www.w3.org/2000/svg">
<g clip-path="url(#clip0_1_2724)">
<path d="M0.5 0.5H64.5V64.5H0.5V0.5Z" fill="#104678"/>
<path d="M53.3462 28.7668C50.9782 22.2388 44.4111 21.8334 43.7356 21.8334C42.1263 21.7868 40.5241 22.0639 39.024 22.6484C37.5239 23.233 36.1566 24.1129 35.0031 25.2361C33.9898 26.1036 33.3107 27.1703 32.5 28.301C31.7533 27.1703 31.0102 26.1676 29.9969 25.2361C27.5578 22.7685 24.244 21.7694 21.332 21.837C20.6565 21.837 13.9542 22.2352 11.6538 28.7703C10.8367 31.3057 11.0553 34.0612 12.2618 36.4361C13.4813 39.0316 16.3933 41.101 19.4369 40.9019C21.6698 40.8308 24.1089 39.4334 24.9871 37.1685C25.7338 35.1668 25.5276 32.9694 23.7676 31.2343C23.8387 31.7001 23.8387 32.301 23.4298 32.8343C22.7542 33.7694 21.6022 34.0361 20.4538 33.6343C19.4369 33.1685 19.0316 32.4361 19.1667 31.501C19.2342 30.701 19.9133 30.0361 20.5889 29.7694C21.94 29.1685 23.1596 29.5028 24.3791 30.637C26.3418 32.8343 26.612 36.1659 27.5578 38.637C28.2333 40.6992 29.2502 42.4983 31.6218 43.0316C31.892 43.1668 32.1622 43.1668 32.5 43.1668C32.7702 43.1668 33.108 43.1668 33.3782 43.0992C35.6822 42.5659 36.7631 40.7668 37.4422 38.701C38.388 36.1659 38.5907 32.8343 40.6209 30.701C41.8405 29.5703 43.0565 29.2361 44.4111 29.837C45.0867 30.1676 45.7658 30.7685 45.8333 31.5685C45.9009 32.5001 45.5631 33.2361 44.5462 33.7019C43.3978 34.1001 42.3133 33.901 41.5702 32.9019C41.3974 32.6777 41.2772 32.4174 41.2188 32.1404C41.1603 31.8634 41.165 31.5768 41.2325 31.3019C39.4725 33.0334 39.2698 35.2343 40.0129 37.2325C40.8911 39.501 43.3302 40.9019 45.5596 40.9659C48.6778 41.1685 51.5862 39.0992 52.7382 36.5001C53.9542 34.1676 54.1605 31.1028 53.3427 28.7703L53.3462 28.7668ZM48.6778 36.6352C47.2556 37.8334 45.428 38.2352 43.8707 37.4992C42.9889 37.037 42.2458 36.301 42.1107 35.501C43.3978 36.7668 45.6982 37.4352 47.796 35.1668C47.796 35.1668 49.7587 33.3676 48.6778 29.9045C48.1338 28.2334 46.036 26.8361 44.276 26.6334C41.7053 26.2352 39.1987 27.1027 37.5098 29.4352C35.5471 32.5001 35.2733 35.9028 33.8511 39.3019C33.7366 39.5452 33.5542 39.7501 33.3258 39.8921C33.0974 40.034 32.8329 40.1069 32.564 40.1019C32.0236 40.1019 31.5471 39.8992 31.2769 39.3019C29.8547 35.9028 29.5845 32.5001 27.5542 29.4352C25.8653 27.1703 23.3587 26.3028 20.788 26.701C19.028 26.9036 16.9302 28.301 16.3898 29.9685C15.2378 33.3676 17.2005 35.1668 17.2005 35.1668C19.2982 37.3676 21.5987 36.7668 22.8858 35.501C22.7535 35.9415 22.5279 36.3484 22.2241 36.6938C21.9204 37.0393 21.5458 37.3152 21.1258 37.5028C19.636 38.1676 17.7409 37.8334 16.3222 36.6352C14.2245 34.6334 13.9507 31.9668 14.7649 29.5703C15.7782 26.637 18.7578 25.1685 21.1258 25.037C23.9702 24.7703 27.828 26.5019 29.3818 29.3676C29.7231 30.0361 30.5338 31.4334 30.5338 31.4334H34.4591C34.4591 31.4334 35.2058 30.0361 35.6111 29.3712C37.1685 26.4343 41.0262 24.7703 43.8671 25.0334C46.2351 25.2361 49.2147 26.7045 50.2316 29.5703C51.0422 31.9668 50.772 34.5694 48.6742 36.6352H48.6778Z" fill="#C3C5C8"/>
</g>
<defs>
<clipPath id="clip0_1_2724">
<rect width="64" height="64" fill="white" transform="translate(0.5 0.5)"/>
</clipPath>
</defs>
</svg>
