<svg width="512" height="512" viewBox="0 0 64 64" fill="none" xmlns="http://www.w3.org/2000/svg">
<g clip-path="url(#clip0_365_32326)">
<mask id="mask0_365_32326" style="mask-type:luminance" maskUnits="userSpaceOnUse" x="0" y="0" width="64" height="64">
<path d="M64 0H0V64H64V0Z" fill="white"/>
</mask>
<g mask="url(#mask0_365_32326)">
<path d="M0 0H64V64H0V0Z" fill="#F0F3FA"/>
<path d="M15.5429 43.04C15.5737 43.2966 15.6431 43.547 15.7486 43.7829L15.7714 43.8057V43.8286L15.8057 43.8743C15.892 44.0028 16.0004 44.115 16.1257 44.2057L16.2286 44.2629L16.2514 44.2743L16.3314 44.3086C16.4343 44.3315 16.5257 44.3543 16.6286 44.3543H16.8C16.827 44.348 16.8537 44.3404 16.88 44.3315C17.0193 44.297 17.1567 44.2551 17.2914 44.2057L17.3143 44.1829C17.3413 44.1722 17.368 44.1608 17.3943 44.1486L17.5771 44.0343L17.6343 44.0114L17.7029 43.9657L17.8171 43.8972L17.9314 43.8057L18.16 43.6343L18.2171 43.5772L18.3771 43.44C18.8249 43.043 19.2521 42.6234 19.6571 42.1829C20.2603 41.5186 20.7891 40.7905 21.2343 40.0114C21.6571 39.28 22.0229 38.5029 22.3086 37.7029C23.3166 34.9984 23.4287 32.0416 22.6286 29.2686L22.6171 29.2343L22.5029 29.3486L22.2971 29.5543C21.789 30.0759 21.2973 30.6133 20.8229 31.1657L20.6971 31.3257C19.5711 32.6981 18.5619 34.1622 17.68 35.7029C17.5393 35.9523 17.4021 36.2038 17.2686 36.4572C16.7708 37.4533 16.3468 38.4847 16 39.5429C15.8514 40 15.7371 40.4572 15.6571 40.9257C15.4971 41.6915 15.4286 42.2743 15.5429 43.04ZM23.6343 27.4286C26.0578 25.2258 28.7404 23.3261 31.6229 21.7715C31.6923 21.7302 31.7708 21.7066 31.8514 21.7029C31.9886 21.7029 32.0343 21.8286 31.9429 22.0457C31.7943 22.4 31.4514 22.7657 31.0971 22.96C29.3695 23.8983 27.7119 24.9601 26.1371 26.1372C25.3829 26.7086 24.7886 27.2 24.1029 27.8172L23.9314 27.9657L23.8514 28.0343C24.1029 28.8 24.2514 29.5886 24.3314 30.3886C24.6743 33.8057 23.7486 37.3029 21.8743 40.2172C20.7568 41.9901 19.3282 43.5466 17.6571 44.8115C17.0857 45.2343 16.3771 45.6915 15.6343 45.7029C14.3314 45.7257 14.1714 44.1372 14.2171 43.2343C14.4088 41.0703 15.0553 38.9712 16.1143 37.0743C17.74 33.9281 19.8625 31.0647 22.4 28.5943C22.1943 28.0686 21.9429 27.5315 21.5771 27.12C21.3486 26.8915 21.12 26.7315 20.8343 26.72H20.6971L20.6743 26.7315H20.6514C20.5894 26.7513 20.5284 26.7742 20.4686 26.8H20.4457L20.3771 26.8343C20.3387 26.8527 20.3006 26.8717 20.2629 26.8915C20.2206 26.9291 20.1787 26.9672 20.1371 27.0057L20.0914 27.0286C20.0146 27.0964 19.9384 27.165 19.8629 27.2343L19.8286 27.2686C19.6997 27.4067 19.574 27.5477 19.4514 27.6915L19.4286 27.7257L19.3943 27.7715L19.3143 27.8629C19.0829 28.1521 18.8618 28.4495 18.6514 28.7543L18.0114 29.7029C17.5869 30.3628 17.1331 31.0034 16.6514 31.6229C16.0343 32.3886 15.3714 33.1086 14.5943 33.7372C14.1371 34.0915 13.6 34.4572 13.0057 34.5943C10.5943 35.1429 10.7771 31.4629 10.9943 30.1486C11.1679 29.1114 11.4752 28.1011 11.9086 27.1429C12.1257 26.6743 12.3314 26.1943 12.4457 25.7029C12.5257 25.36 12.5943 24.6972 12.1257 24.6743C11.9478 24.6659 11.7719 24.7139 11.6229 24.8115H11.6C11.5845 24.8225 11.5692 24.8339 11.5543 24.8457L11.52 24.8686L11.5086 24.88L11.3257 25.0172L11.2914 25.0515C11.2525 25.0848 11.2144 25.1191 11.1771 25.1543L11.1543 25.1772H11.1429C11.0286 25.2915 10.5257 25.8286 10.3314 25.6343C10.1257 25.4515 10.56 24.9372 10.6971 24.8C11.2321 24.1621 11.9202 23.6706 12.6971 23.3715C13.1886 23.2343 13.6457 23.3486 13.76 23.8743C13.9086 24.6286 13.52 25.4743 13.1886 26.1829L13.0857 26.4115C12.503 27.6672 12.1803 29.0278 12.1371 30.4115C12.1143 31.2572 12.1714 32.4686 12.9371 33.0629C13.1354 33.2269 13.389 33.3087 13.6457 33.2915C13.7714 33.2915 13.7829 33.28 13.8514 33.2572H13.8743C13.9915 33.2237 14.1061 33.1817 14.2171 33.1315L14.2971 33.0972C14.3592 33.0609 14.4202 33.0228 14.48 32.9829H14.4914L14.5143 32.96C14.5371 32.96 14.5486 32.9372 14.5714 32.9257L14.6057 32.9029L14.7771 32.7657C14.8041 32.7471 14.8308 32.728 14.8571 32.7086L14.88 32.6857L14.96 32.6057L15.0743 32.5143L15.1429 32.4457L15.2457 32.3429C15.3822 32.2011 15.5156 32.0563 15.6457 31.9086L15.7371 31.7943L15.7714 31.76L15.7943 31.7372V31.7257C16.16 31.28 16.5029 30.8229 16.8229 30.3543L17.3029 29.6457C17.8171 28.88 18.3314 28.1143 18.9371 27.3943C19.4629 26.7657 20.0571 26.16 20.7657 25.7143C21.1314 25.4972 21.6114 25.2915 22.0457 25.3829C22.8343 25.5543 23.1886 26.4115 23.4743 27.04V27.0629L23.6343 27.4286ZM30.7886 29.7143L29.44 31.8629L28.0914 29.7143H27.4286L29.1429 32.3886L27.92 34.2857H28.5029L31.4514 29.7143H30.7886ZM35.2914 30.1143C35.1771 30.1143 35.0629 30.0229 35.0629 29.92C35.0629 29.8057 35.1771 29.7143 35.2914 29.7143C35.4171 29.7143 35.52 29.8057 35.52 29.92C35.52 30.0343 35.4171 30.1143 35.2914 30.1143ZM36.1029 30.1143C35.9886 30.1143 35.8743 30.0229 35.8743 29.92C35.8743 29.8057 35.9886 29.7143 36.1029 29.7143C36.2286 29.7143 36.3314 29.8057 36.3314 29.92C36.3314 30.0343 36.2286 30.1143 36.1029 30.1143ZM37.12 32.4572V29.7143H37.7143V32.4229C37.7143 32.9943 37.5314 33.4515 37.1543 33.7943C36.7886 34.1257 36.3086 34.2857 35.7257 34.2857C35.1314 34.2857 34.64 34.1257 34.2743 33.7943C34.0843 33.6221 33.9354 33.4095 33.8385 33.1722C33.7416 32.9349 33.6991 32.6788 33.7143 32.4229V29.7143H34.3086V32.4572C34.3086 33.3372 34.88 33.7943 35.7257 33.7943C36.5486 33.7943 37.12 33.3372 37.12 32.4572ZM40.5714 29.7143V34.2857H41.1429V30.8915L44.3543 34.2857H44.5714V29.7143H43.9771V33.12L40.7771 29.7143H40.5714ZM47.1771 30.8572C47.1771 30.5143 47.3143 30.24 47.6114 30.0343C47.8971 29.8172 48.2514 29.7143 48.6743 29.7143C49.3257 29.7143 49.8971 30.0115 50.2286 30.4686L49.7943 30.7543C49.6646 30.5741 49.4924 30.4287 49.2931 30.331C49.0937 30.2333 48.8733 30.1864 48.6514 30.1943C48.1714 30.1943 47.7829 30.4229 47.7829 30.8343C47.7829 31.0286 47.84 31.1772 48.0114 31.2915C48.1829 31.4057 48.2629 31.4515 48.5029 31.5543L48.5829 31.5886L49.1314 31.8172C49.9086 32.1486 50.2857 32.4915 50.2857 33.0515C50.2857 33.4172 50.1371 33.7143 49.8286 33.9429C49.5314 34.1715 49.1429 34.2857 48.6857 34.2857C47.9086 34.2857 47.2457 33.92 46.8571 33.3372L47.2914 33.04C47.6571 33.5429 48.1257 33.8057 48.6743 33.8057C49.2686 33.8057 49.68 33.52 49.68 33.0629C49.68 32.6857 49.4514 32.5372 48.8457 32.2857L48.2971 32.0572C47.5886 31.7486 47.1771 31.4286 47.1771 30.8686V30.8572ZM55.8743 32.8915L54.88 30.6857L53.8971 32.8915H55.8743ZM52.6286 34.2857L54.7771 29.7143H55.0057L57.1429 34.2857H56.5143L56.0914 33.3715H53.68L53.2457 34.2857H52.6286Z" fill="#202020"/>
</g>
</g>
<defs>
<clipPath id="clip0_365_32326">
<rect width="64" height="64" fill="white"/>
</clipPath>
</defs>
</svg>
