<svg width="512" height="512" viewBox="0 0 64 64" fill="none" xmlns="http://www.w3.org/2000/svg">
<g clip-path="url(#clip0_365_32603)">
<mask id="mask0_365_32603" style="mask-type:luminance" maskUnits="userSpaceOnUse" x="0" y="0" width="64" height="64">
<path d="M64 0H0V64H64V0Z" fill="white"/>
</mask>
<g mask="url(#mask0_365_32603)">
<path d="M0 0H64V64H0V0Z" fill="#005197"/>
<path d="M0 37.7143H64V64H0V37.7143Z" fill="#90C33B"/>
<path d="M6.85718 26.2857H57.1429V37.7143H6.85718V26.2857Z" fill="#1A181A"/>
<path d="M44.5714 34.4297C44.5714 33.6606 44.7839 32.9874 45.2091 32.4103C45.6331 31.8331 46.2194 31.3817 46.9668 31.056C47.7131 30.7166 48.5702 30.5463 49.5382 30.5463C50.0068 30.5463 50.4674 30.5909 50.9211 30.6789C51.3759 30.7531 52.2354 30.864 52.5714 31.0126V30.5017C52.5714 29.1851 51.3394 28.5269 49.8011 28.5269C49.1565 28.5269 48.5485 28.6377 47.9771 28.8594C47.3535 29.1171 46.7573 29.4368 46.1976 29.8137L45.1428 27.5509C46.6242 26.5577 48.3696 26.0321 50.1531 26.0423C51.8811 26.0423 53.5976 26.4629 54.5496 27.3063C55.5165 28.1349 55.9999 29.3406 55.9999 30.9234V37.7143H52.5714V36.0937C52.0582 36.76 51.5302 37.2709 50.8114 37.6251C50.1195 37.9592 49.3614 38.1334 48.5931 38.1349C47.8746 38.1454 47.1647 37.9777 46.5268 37.6469C45.9464 37.3402 45.4545 36.8896 45.0982 36.3383C44.7438 35.7655 44.561 35.1032 44.5714 34.4297ZM52.5714 33.7143V32.92C51.8765 32.6537 50.8834 32.5429 50.1302 32.5429C49.4719 32.5429 48.9302 32.6914 48.5051 32.9874C48.0936 33.2834 47.8891 33.6606 47.8891 34.1189C47.8891 34.5189 48.0434 34.8663 48.3508 35.1623C48.6731 35.4423 49.0982 35.584 49.6251 35.584C49.9771 35.584 50.3279 35.5166 50.6799 35.384C51.1302 35.2114 52.5714 34.2217 52.5714 33.7143ZM7.99993 34.4297C7.99993 33.6606 8.2125 32.9874 8.63764 32.4103C9.06164 31.8331 9.64793 31.3817 10.3954 31.056C11.1416 30.7166 11.9988 30.5463 12.9668 30.5463C13.4354 30.5463 13.8959 30.5909 14.3496 30.6789C14.8045 30.7531 15.6639 30.864 15.9999 31.0126V30.5017C15.9999 29.1851 14.7679 28.5269 13.2296 28.5269C12.5851 28.5269 11.9771 28.6377 11.4056 28.8594C10.782 29.1171 10.1859 29.4368 9.62621 29.8137L8.57136 27.5509C10.0527 26.5577 11.7982 26.0321 13.5816 26.0423C15.3096 26.0423 17.0262 26.4629 17.9782 27.3063C18.9451 28.1349 19.4285 29.3406 19.4285 30.9234V37.7143H15.9999V36.0937C15.4868 36.76 14.9576 37.2709 14.2399 37.6251C13.5477 37.9593 12.7892 38.1336 12.0205 38.1349C11.3024 38.1452 10.5929 37.9775 9.95536 37.6469C9.37498 37.3402 8.88307 36.8896 8.52679 36.3383C8.17241 35.7655 7.98958 35.1032 7.99993 34.4297ZM15.9999 33.7143V32.92C15.3051 32.6537 14.3119 32.5429 13.5588 32.5429C12.9005 32.5429 12.3588 32.6914 11.9336 32.9874C11.5222 33.2834 11.3176 33.6606 11.3176 34.1189C11.3176 34.5189 11.4719 34.8663 11.7794 35.1623C12.1016 35.4423 12.5268 35.584 13.0536 35.584C13.4056 35.584 13.7565 35.5166 14.1085 35.384C14.5588 35.2114 15.9999 34.2217 15.9999 33.7143ZM29.1576 37.7143L26.3462 33.2537L25.1428 34.5177V37.7143H21.7142V26.2629H25.1428V31.0789L29.0274 26.2629H32.7416L28.5874 31.2789L32.8925 37.7143H29.1576ZM38.4194 38.1349C37.4319 38.1363 36.4513 37.9714 35.5188 37.6469C34.5965 37.3074 33.8125 36.8263 33.1679 36.2046L34.3771 33.9646C35.7976 35.0137 37.1085 35.5394 38.3096 35.5394C38.7645 35.5394 39.1154 35.4651 39.3645 35.3166C39.6136 35.1691 39.7382 34.9394 39.7382 34.6297C39.7382 34.304 39.5691 34.0743 39.2331 33.9417C38.7456 33.7414 38.2464 33.5708 37.7382 33.4309C36.9894 33.1867 36.2558 32.8978 35.5416 32.5657C34.9554 32.2846 34.5154 31.944 34.2228 31.5451C33.9302 31.1451 33.7828 30.6126 33.7828 29.9474C33.7828 28.7783 34.2159 27.8389 35.0799 27.1291C35.9439 26.4034 37.1165 26.0411 38.5954 26.0411C39.3862 26.0411 40.1554 26.1669 40.9028 26.4183C41.6639 26.6697 42.3748 27.0926 43.0342 27.6834L41.6719 29.9029C41.0125 29.4446 40.4262 29.1109 39.9142 28.904C39.4407 28.7048 38.933 28.5992 38.4194 28.5931C38.0388 28.5931 37.7165 28.6674 37.4525 28.8149C37.1896 28.9486 37.0571 29.1851 37.0571 29.5257C37.0525 29.677 37.0915 29.8264 37.1696 29.9561C37.2476 30.0858 37.3613 30.1903 37.4971 30.2571C37.7896 30.4057 38.2445 30.568 38.8594 30.7463C39.7965 31.0274 40.5805 31.3154 41.2102 31.6114C41.8548 31.8926 42.3302 32.2469 42.6388 32.6766C42.9611 33.0903 43.1222 33.6457 43.1222 34.3406C43.1222 35.5246 42.6971 36.456 41.8479 37.1371C40.9976 37.8023 39.8548 38.1349 38.4194 38.1349Z" fill="white"/>
</g>
</g>
<defs>
<clipPath id="clip0_365_32603">
<rect width="64" height="64" fill="white"/>
</clipPath>
</defs>
</svg>
