<svg width="512" height="512" viewBox="0 0 64 64" fill="none" xmlns="http://www.w3.org/2000/svg">
<g clip-path="url(#clip0_365_32528)">
<mask id="mask0_365_32528" style="mask-type:luminance" maskUnits="userSpaceOnUse" x="0" y="0" width="64" height="64">
<path d="M64 0H0V64H64V0Z" fill="white"/>
</mask>
<g mask="url(#mask0_365_32528)">
<path d="M0 0H64V64H0V0Z" fill="#F0F3FA"/>
<path d="M45.3714 36.3623L40 27.8594V41.312C40.0091 42.6114 39.2183 44.0789 37.432 44.0846C35.9337 44.096 34.8377 42.9577 34.8251 41.2171C34.8251 40.8606 35.0137 40.3463 35.12 40.0263L39.6411 27.2549L37.5977 24L29.9257 36.6366C29.0138 38.0756 28.5434 39.7503 28.5726 41.4537C28.5954 46.1474 32.6777 50.3131 37.7417 50.2857C42.8057 50.2583 46.8834 46.0297 46.8571 41.3577C46.8682 39.5816 46.3497 37.8425 45.368 36.3623" fill="#E31837"/>
<path d="M18.6412 27.6423L24 36.0914V22.6926C23.9886 21.392 24.8378 19.9634 26.6206 19.9543C28.1178 19.9463 29.16 21.0446 29.1715 22.7863C29.1715 23.1406 28.9863 23.656 28.8743 23.976L24.3589 36.7474L26.4023 40L34.0709 27.3623C34.9814 25.91 35.454 24.226 35.432 22.512C35.4012 17.8297 31.3109 13.696 26.2583 13.7143C21.2069 13.7326 17.1246 17.9829 17.1475 22.6423C17.1339 24.4209 17.6543 26.1626 18.6412 27.6423Z" fill="#F78E1E"/>
</g>
</g>
<defs>
<clipPath id="clip0_365_32528">
<rect width="64" height="64" fill="white"/>
</clipPath>
</defs>
</svg>
