<svg width="512" height="512" viewBox="0 0 64 64" fill="none" xmlns="http://www.w3.org/2000/svg">
<g clip-path="url(#clip0_365_32578)">
<mask id="mask0_365_32578" style="mask-type:luminance" maskUnits="userSpaceOnUse" x="0" y="0" width="64" height="64">
<path d="M64 0H0V64H64V0Z" fill="white"/>
</mask>
<g mask="url(#mask0_365_32578)">
<path d="M0 0H64V64H0V0Z" fill="#00359D"/>
<path d="M40.8686 25.1429C38.7772 25.1429 37.1429 26.3657 37.1429 27.9771C37.1429 29.6 38.7772 30.8571 40.8686 30.8571C42.9486 30.8571 44.5715 29.6 44.5715 27.9771C44.5715 26.3657 42.9486 25.1429 40.8686 25.1429ZM40.8686 29.7143C39.8743 29.7143 39.4286 28.88 39.4286 28C39.4286 27.12 39.9543 26.2857 40.8686 26.2857C41.7829 26.2857 42.2857 27.12 42.2857 28C42.2857 28.88 41.8629 29.7143 40.8686 29.7143ZM29.7143 25.1429V30.8571H33.8515C35.3943 30.8571 36.5715 29.4743 36.5715 27.9886C36.5715 26.5029 35.3943 25.1429 33.8515 25.1429H29.7143ZM32.8686 29.7143H32V26.2857H32.88C33.6343 26.2857 34.2857 26.9714 34.2857 28C34.2857 29.0286 33.6229 29.7143 32.8686 29.7143ZM23.84 25.1429L21.84 30.8571H24.3086L24.6515 29.7143H26.48L26.7086 30.8571H29.3943L27.4972 25.1429H23.84ZM25.5429 26.4L26.1943 28.5714H24.9143L25.5429 26.4ZM14.8572 25.1429V30.8571H17.1429V28.3314L18.8572 30.8571H21.7143V25.1429H19.4286V27.6914L17.7715 25.1429H14.8572ZM8.86861 25.1429L6.85718 30.8571H9.33718L9.68004 29.7143H11.4972L11.7257 30.8571H14.4115L12.5143 25.1429H8.85718H8.86861ZM10.56 26.48L11.2115 28.5714H9.93146L10.56 26.48ZM57.1429 28.9371V25.1429H54.8572V28.6743C54.8572 29.1543 54.5715 29.7143 53.7372 29.7143C52.9143 29.7143 52.5715 29.1543 52.5715 28.6743V25.1429H50.2857V28.9371C50.2857 30.24 51.8629 30.8571 53.7372 30.8571C55.6229 30.8571 57.1429 30.24 57.1429 28.9371ZM10.7315 34.6743L10.8115 34.9257H13.1086C13.1086 33.92 11.7143 33.1429 9.98861 33.1429C8.26289 33.1429 6.85718 33.92 6.85718 34.9143C6.85718 35.5314 7.39432 35.9657 8.20575 36.2857L9.84003 36.6971C9.84003 36.6971 10.8115 36.8686 10.8115 37.2114C10.8115 37.5543 10.5715 37.6686 10.1943 37.6686C9.81718 37.6686 9.58861 37.5086 9.54289 37.3143C9.50861 37.12 9.52003 37.0286 9.52003 37.0286L6.89146 37.0171C6.89146 38.08 8.28575 38.8571 10.0115 38.8571C11.7372 38.8571 13.2572 38.1714 13.2572 37.1086C13.2572 36.2857 12.5372 35.6343 11.1543 35.4514C11.1543 35.4514 10.4343 35.3486 10.1486 35.2914C9.86289 35.2229 9.60003 35.0629 9.60003 34.8114C9.60003 34.56 9.85146 34.4229 10.1715 34.4229C10.48 34.4229 10.6743 34.5371 10.7315 34.6743ZM16.3315 31.9771L14.8457 31.1771L13.3829 31.9771L14.8572 32.8114L16.3315 31.9771ZM16 38.8571V33.1429H13.7143V38.8571H16ZM20.3657 38.8571C21.6229 38.8571 22.9372 38.6514 24 38.32V35.4286H20.5715V36.5714H21.7143V37.7143H20.2515C19.6572 37.7143 18.8572 36.96 18.8572 36.08C18.8572 35.2 19.4743 34.2857 20.3657 34.2857C21.2457 34.2857 21.6572 34.6971 21.7143 35.04H23.84C23.6915 34.0457 22.0343 33.1429 20.3657 33.1429C18.2743 33.1429 16.5715 34.3429 16.5715 35.9543C16.5715 37.7143 18.2857 38.8571 20.3657 38.8571ZM39.4286 33.1429V34.2857H41.1429V38.8571H43.4286V34.2857H45.1429V33.1429H39.4286ZM49.7943 33.1429H46.1372L44.1372 38.8571H46.6172L46.96 37.7143H48.7886L49.0172 38.8571H51.6915L49.7943 33.1429ZM47.8515 34.4571L48.4915 36.5714H47.2115L47.84 34.4571H47.8515ZM38.8343 37.4514C38.8343 37.4514 38.6515 36.5943 38.3429 36.4C38.0343 36.2286 37.6 36.1143 37.6 36.1143C38.2857 35.9086 38.8343 35.6686 38.8572 34.6743C38.88 33.68 38 33.1429 37.0172 33.1429H32.5715V38.8571H34.8572V36.5714C34.8572 36.5714 35.6915 36.5143 36 36.6857C36.2972 36.8686 36.5029 37.7943 36.5715 38.0686V38.1029L36.7315 38.8571H39.0972L38.8343 37.4514ZM36 35.4286H34.8572V34.2857H36C36.3429 34.2857 36.5715 34.5143 36.5715 34.8571C36.5715 35.2 36.3429 35.4286 36 35.4286ZM47.4286 25.1429H45.1429V30.8571H50.2857V29.7143H47.4286V25.1429ZM28.2972 33.1429C26.2057 33.1429 24.5715 34.3657 24.5715 35.9771C24.5715 37.6 26.2057 38.8571 28.2972 38.8571C30.3772 38.8571 32 37.6 32 35.9771C32 34.3657 30.3772 33.1429 28.2972 33.1429ZM28.2972 37.7143C27.3029 37.7143 26.8572 36.88 26.8572 36C26.8572 35.12 27.3829 34.2857 28.2972 34.2857C29.2115 34.2857 29.7143 35.12 29.7143 36C29.7143 36.88 29.2915 37.7143 28.2972 37.7143Z" fill="white"/>
</g>
</g>
<defs>
<clipPath id="clip0_365_32578">
<rect width="64" height="64" fill="white"/>
</clipPath>
</defs>
</svg>
